<svg viewBox="0 0 1024 1024" width="38px" color="text" xmlns="http://www.w3.org/2000/svg" class="sc-bdvvaa TGXYu"><g transform="matrix(1,0,0,1,-4055.56,631.037)"><g transform="matrix(0.587153,0,0,1.21905,4055.56,-631.037)"><g transform="matrix(3.85415,0,0,1.85636,-4343.77,-339.804)"><ellipse cx="1353.29" cy="450.896" rx="129.904" ry="130.352" fill="white"></ellipse></g><g transform="matrix(1.70739,0,0,1.78962,-616.84,-311.773)"><g transform="matrix(2.8552,0,0,1.31202,-2926.86,-84.6929)"><ellipse cx="1244.49" cy="251.263" rx="32.662" ry="32.774" fill="#3055ff"></ellipse></g><g transform="matrix(2.25733,0,0,1.03729,-2182.82,-15.6627)"><path d="M1235.69,374.82L1235.69,313.456C1235.69,310.806 1236.74,308.265 1238.61,306.388L1257.29,287.64L1238.61,268.892C1234.71,264.977 1234.72,258.632 1238.63,254.73C1242.55,250.829 1248.89,250.84 1252.8,254.755L1278.52,280.571C1282.42,284.479 1282.42,290.8 1278.52,294.708L1255.72,317.594L1255.72,350.306C1280.94,325.682 1315.36,310.513 1353.29,310.513C1430.51,310.513 1493.22,373.407 1493.22,450.896C1493.22,528.384 1430.51,591.278 1353.29,591.278C1276.07,591.278 1213.35,528.384 1213.35,450.896C1213.35,422.868 1221.56,396.75 1235.69,374.82ZM1251.6,387.195C1240.08,405.673 1233.41,427.51 1233.41,450.896C1233.41,517.293 1287.12,571.216 1353.29,571.216C1419.46,571.216 1473.16,517.293 1473.16,450.896C1473.16,384.498 1419.46,330.575 1353.29,330.575C1312.91,330.575 1277.18,350.653 1255.45,381.39C1254.26,383.115 1252.86,385.16 1251.6,387.195Z" fill="black"></path></g><g transform="matrix(2.25733,0,0,1.03729,-2182.82,-15.6627)"><path d="M1227.91,372.564C1213.76,395.296 1205.58,422.144 1205.58,450.896C1205.58,532.684 1271.78,599.056 1353.29,599.056C1434.8,599.056 1501,532.684 1501,450.896C1501,369.107 1434.8,302.735 1353.29,302.735C1319.53,302.735 1288.39,314.12 1263.5,333.276C1263.5,333.277 1263.5,320.808 1263.5,320.808L1284.03,300.198C1290.95,293.255 1290.95,282.024 1284.03,275.081L1258.31,249.264C1251.38,242.308 1240.1,242.289 1233.14,249.22L1233.14,249.221C1226.19,256.154 1226.17,267.427 1233.1,274.383L1246.31,287.64L1233.1,300.897C1229.78,304.232 1227.91,308.747 1227.91,313.456L1227.91,372.564ZM1235.69,374.82L1235.69,313.456C1235.69,310.806 1236.74,308.265 1238.61,306.388L1257.29,287.64L1238.61,268.892C1234.71,264.977 1234.72,258.632 1238.63,254.73C1242.55,250.829 1248.89,250.84 1252.8,254.755L1278.52,280.571C1282.42,284.479 1282.42,290.8 1278.52,294.708L1255.72,317.594L1255.72,350.306C1280.94,325.682 1315.36,310.513 1353.29,310.513C1430.51,310.513 1493.22,373.407 1493.22,450.896C1493.22,528.384 1430.51,591.278 1353.29,591.278C1276.07,591.278 1213.35,528.384 1213.35,450.896C1213.35,422.868 1221.56,396.75 1235.69,374.82ZM1251.6,387.195C1240.08,405.673 1233.41,427.51 1233.41,450.896C1233.41,517.293 1287.12,571.216 1353.29,571.216C1419.46,571.216 1473.16,517.293 1473.16,450.896C1473.16,384.498 1419.46,330.575 1353.29,330.575C1312.91,330.575 1277.18,350.653 1255.45,381.39C1254.26,383.115 1252.86,385.16 1251.6,387.195ZM1258.2,391.31C1258.2,391.305 1258.2,391.299 1258.21,391.294C1259.39,389.389 1260.7,387.475 1261.82,385.855C1282.14,357.126 1315.54,338.353 1353.29,338.353C1415.17,338.353 1465.38,388.798 1465.38,450.896C1465.38,512.993 1415.17,563.438 1353.29,563.438C1291.4,563.438 1241.19,512.993 1241.19,450.896C1241.19,429.021 1247.42,408.594 1258.2,391.31Z" fill="white"></path></g></g><g transform="matrix(1.53171,0,0,1.53171,-463.644,-161.885)"><g transform="matrix(2.51624,0,0,1.21195,-2533.2,-116.157)"><path d="M1247.21,557.425C1234.9,545.068 1225.17,531.095 1218.03,516.179C1213.78,507.286 1203.1,503.519 1194.21,507.774C1194.21,507.774 1194.21,507.775 1194.2,507.775C1185.31,512.032 1181.55,522.708 1185.8,531.601C1194.63,550.058 1206.66,567.356 1221.9,582.646C1228.86,589.631 1240.18,589.65 1247.17,582.69C1254.15,575.729 1254.17,564.409 1247.21,557.425ZM1241.65,562.967C1228.69,549.966 1218.46,535.262 1210.95,519.568C1208.57,514.583 1202.58,512.472 1197.6,514.857C1192.61,517.243 1190.5,523.227 1192.88,528.212C1201.34,545.891 1212.87,562.459 1227.46,577.104C1231.37,581.019 1237.71,581.03 1241.62,577.129C1245.54,573.227 1245.55,566.882 1241.65,562.967Z" fill="white"></path></g><g transform="matrix(2.51624,0,0,1.21195,-2533.2,-116.157)"><path d="M1241.65,562.967C1228.69,549.966 1218.46,535.262 1210.95,519.568C1208.57,514.583 1202.58,512.472 1197.6,514.857C1192.61,517.243 1190.5,523.227 1192.88,528.212C1201.34,545.891 1212.87,562.459 1227.46,577.104C1231.37,581.019 1237.71,581.03 1241.62,577.129C1245.54,573.227 1245.55,566.882 1241.65,562.967Z" fill="black"></path></g><g transform="matrix(2.51624,0,0,1.21195,-2533.2,-116.157)"><path d="M1459.37,344.366C1471.68,356.723 1481.41,370.696 1488.55,385.612C1492.8,394.505 1503.48,398.272 1512.37,394.017C1521.27,389.762 1525.03,379.086 1520.78,370.19C1511.95,351.733 1499.91,334.436 1484.68,319.145C1477.72,312.16 1466.4,312.141 1459.41,319.102C1452.43,326.062 1452.41,337.381 1459.37,344.366ZM1464.93,338.824C1477.89,351.825 1488.12,366.529 1495.63,382.223C1498.02,387.208 1504,389.319 1508.98,386.934C1513.97,384.549 1516.08,378.565 1513.69,373.579C1505.24,355.9 1493.71,339.333 1479.12,324.687C1475.21,320.772 1468.87,320.761 1464.95,324.663C1461.04,328.564 1461.03,334.909 1464.93,338.824Z" fill="white"></path></g><g transform="matrix(2.51624,0,0,1.21195,-2533.2,-116.157)"><path d="M1464.93,338.824C1477.89,351.825 1488.12,366.529 1495.63,382.223C1498.02,387.208 1504,389.319 1508.98,386.934C1513.97,384.549 1516.08,378.565 1513.69,373.579C1505.24,355.9 1493.71,339.333 1479.12,324.687C1475.21,320.772 1468.87,320.761 1464.95,324.663C1461.04,328.564 1461.03,334.909 1464.93,338.824Z" fill="black"></path></g></g></g></g></svg>