<svg width="150" height="150" viewBox="0 0 150 150" fill="none" xmlns="http://www.w3.org/2000/svg">
<path d="M74.9874 148.711C115.704 148.711 148.711 115.704 148.711 74.9874C148.711 34.2712 115.704 1.26416 74.9874 1.26416C34.2712 1.26416 1.26414 34.2712 1.26414 74.9874C1.26414 115.704 34.2712 148.711 74.9874 148.711Z" fill="white"/>
<path fill-rule="evenodd" clip-rule="evenodd" d="M74.9875 2.52823C34.9694 2.52823 2.52832 34.9693 2.52832 74.9874C2.52832 115.005 34.9694 147.446 74.9875 147.446C115.006 147.446 147.447 115.005 147.447 74.9874C147.447 34.9693 115.006 2.52823 74.9875 2.52823ZM9.15527e-05 74.9874C9.15527e-05 33.573 33.5731 0 74.9875 0C116.402 0 149.975 33.573 149.975 74.9874C149.975 116.402 116.402 149.975 74.9875 149.975C33.5731 149.975 9.15527e-05 116.402 9.15527e-05 74.9874Z" fill="#231F20"/>
<path d="M74.9873 138.775C110.216 138.775 138.775 110.216 138.775 74.9872C138.775 39.7585 110.216 11.2 74.9873 11.2C39.7586 11.2 11.2 39.7585 11.2 74.9872C11.2 110.216 39.7586 138.775 74.9873 138.775Z" fill="#009F55"/>
<path fill-rule="evenodd" clip-rule="evenodd" d="M74.9873 13.7283C41.1548 13.7283 13.7282 41.155 13.7282 74.9874C13.7282 108.82 41.1548 136.246 74.9873 136.246C108.82 136.246 136.246 108.82 136.246 74.9874C136.246 41.155 108.82 13.7283 74.9873 13.7283ZM8.67177 74.9874C8.67177 38.3623 38.3622 8.67188 74.9873 8.67188C111.612 8.67188 141.303 38.3623 141.303 74.9874C141.303 111.612 111.612 141.303 74.9873 141.303C38.3622 141.303 8.67177 111.612 8.67177 74.9874Z" fill="#231F20"/>
<path d="M102.599 103.698C101.914 104.178 100.972 104.503 99.7724 104.675C98.6417 104.846 97.8193 104.812 97.3053 104.572C97.1683 104.503 97.0312 104.264 96.8942 103.852C96.7914 103.407 96.6543 103.099 96.483 102.927C96.4145 102.859 96.3288 102.807 96.226 102.773C94.8554 102.019 93.382 101.368 91.8058 100.82C88.1052 99.4494 84.2847 98.6099 80.3443 98.3015C78.3226 93.4702 77.2262 90.8318 77.0548 90.3864C75.8556 87.3368 75.4787 85.5893 75.9241 85.1438L114.575 46.4931C114.815 46.2533 115.551 46.3047 116.785 46.6473C118.053 47.0242 118.858 47.4183 119.201 47.8294C119.577 48.2749 120.126 49.3714 120.845 51.1189C121.599 52.8321 122.37 54.0828 123.158 54.8709C124.186 55.8988 125.985 56.7726 128.555 57.4921C130.953 58.1089 132.273 58.6743 132.512 59.1882C133.061 60.2847 133.369 62.4091 133.438 65.5615C133.575 68.7139 133.386 70.6841 132.872 71.4722C132.632 71.8491 131.776 72.0547 130.302 72.0889C128.863 72.1575 127.921 71.969 127.476 71.5236C127.099 71.1467 126.876 70.8211 126.807 70.547C126.739 70.2729 126.653 70.1187 126.55 70.0844C125.043 69.125 123.569 68.3027 122.13 67.6174C118.738 65.9384 115.877 65.0646 113.547 64.9961L105.169 73.3739C106.985 73.9564 109.178 74.8815 111.748 76.1493C112.365 76.629 112.742 78.5479 112.879 81.9058C113.084 85.2638 112.879 87.2511 112.262 87.8679C111.885 88.2448 111.2 88.4504 110.206 88.4847C109.212 88.5189 108.424 88.3819 107.842 88.0735C107.499 87.7308 106.865 87.1655 105.94 86.3774C104.398 85.3152 101.006 84.1159 95.7634 82.7796L90.3667 88.1763C92.0114 88.5875 94.1187 89.2556 96.6886 90.1808C99.327 91.1059 100.852 91.7741 101.263 92.1853C101.743 92.665 102.188 94.6181 102.599 98.0445C103.079 101.471 103.079 103.356 102.599 103.698Z" fill="white"/>
<path fill-rule="evenodd" clip-rule="evenodd" d="M115.241 47.6144L77.0083 85.8473C77.0137 85.9869 77.0401 86.2057 77.1083 86.522C77.2751 87.2952 77.6396 88.4194 78.2312 89.9237L78.2329 89.9281L78.2346 89.9325C78.3892 90.3344 79.3768 92.713 81.2153 97.1084C84.9953 97.4705 88.6688 98.3112 92.233 99.6302C93.8377 100.189 95.3464 100.853 96.7573 101.623C96.9777 101.714 97.1906 101.847 97.3768 102.033C97.7866 102.443 97.9893 103.006 98.1081 103.493C98.3809 103.531 98.8474 103.536 99.583 103.425L99.5882 103.424L99.5936 103.423C100.517 103.291 101.183 103.069 101.648 102.805C101.674 102.643 101.695 102.392 101.695 102.028C101.695 101.174 101.585 99.9144 101.347 98.2198L101.346 98.2075L101.344 98.1951C101.141 96.4993 100.933 95.2045 100.724 94.2909C100.62 93.8329 100.521 93.499 100.435 93.2706C100.393 93.1606 100.361 93.0959 100.344 93.0634C100.31 93.0395 100.243 92.9957 100.13 92.9328C99.936 92.8246 99.6641 92.6916 99.3035 92.5335C98.5833 92.218 97.5765 91.8317 96.2702 91.3736L96.2652 91.3719L96.2603 91.3701C93.7094 90.4518 91.6466 89.7993 90.06 89.4026L87.894 88.8611L95.3783 81.3768L96.0756 81.5546C98.7173 82.228 100.916 82.8725 102.661 83.4894C104.384 84.0987 105.745 84.7082 106.657 85.3363L106.71 85.3731L106.76 85.415C107.565 86.1009 108.177 86.6409 108.574 87.0216C108.899 87.1541 109.405 87.2474 110.162 87.2213C110.59 87.2065 110.895 87.1561 111.102 87.0939C111.255 87.0482 111.327 87.0043 111.354 86.9847C111.367 86.9619 111.401 86.8976 111.442 86.7676C111.51 86.5517 111.575 86.2317 111.621 85.7847C111.714 84.8907 111.718 83.6328 111.617 81.983L111.616 81.9702L111.616 81.9573C111.548 80.3041 111.423 79.0587 111.253 78.1918C111.167 77.7575 111.078 77.4568 110.998 77.2627C110.981 77.2238 110.967 77.1926 110.955 77.1682C108.519 75.9756 106.465 75.1169 104.783 74.5775L102.81 73.9448L113.039 63.7165L113.584 63.7325C116.173 63.8087 119.22 64.7675 122.682 66.4801C124.148 67.1787 125.641 68.011 127.161 68.9745C127.515 69.1597 127.707 69.4513 127.797 69.6118C127.91 69.8161 127.98 70.0319 128.027 70.2149C128.033 70.2255 128.045 70.248 128.069 70.2829C128.123 70.3625 128.216 70.4765 128.365 70.6255C128.366 70.6249 128.458 70.6981 128.764 70.7594C129.097 70.826 129.58 70.8578 130.242 70.8262L130.258 70.8255L130.273 70.8251C130.971 70.8089 131.452 70.7524 131.755 70.6798C131.805 70.6677 131.846 70.6562 131.879 70.646C131.961 70.4369 132.07 70.0181 132.141 69.283C132.227 68.3799 132.242 67.164 132.175 65.6164L132.174 65.6027L132.174 65.5889C132.14 64.0428 132.048 62.779 131.904 61.7855C131.768 60.8484 131.595 60.2226 131.423 59.8414C131.419 59.8386 131.415 59.8356 131.411 59.8324C131.311 59.7635 131.132 59.6637 130.845 59.5406C130.272 59.2951 129.415 59.0184 128.24 58.7164L128.227 58.713L128.214 58.7094C125.583 57.9728 123.527 57.027 122.264 55.7647C121.315 54.8155 120.468 53.4006 119.688 51.6279L119.682 51.6141L119.676 51.6001C119.323 50.7414 119.019 50.0614 118.764 49.5512C118.497 49.017 118.321 48.7465 118.235 48.646L118.232 48.6423L118.23 48.6392C118.23 48.6392 118.204 48.6105 118.131 48.5591C118.054 48.5051 117.941 48.438 117.784 48.3609C117.468 48.2064 117.025 48.038 116.436 47.8622C115.874 47.7066 115.485 47.6341 115.241 47.6144ZM131.47 59.8788C131.47 59.8788 131.468 59.8769 131.464 59.873C131.469 59.8769 131.471 59.8788 131.47 59.8788ZM131.984 70.6063C131.983 70.6064 131.983 70.6064 131.983 70.6065C131.986 70.6051 131.986 70.6051 131.984 70.6063ZM101.608 102.975C101.608 102.975 101.61 102.966 101.617 102.95C101.612 102.968 101.608 102.976 101.608 102.975ZM77.0132 85.6993C77.0136 85.6997 77.0129 85.7068 77.0101 85.7193C77.0115 85.7051 77.0129 85.6989 77.0132 85.6993ZM115.395 45.0907C115.888 45.1251 116.475 45.2492 117.123 45.4293L117.134 45.4323L117.145 45.4356C117.818 45.6355 118.408 45.8515 118.895 46.09C119.362 46.3187 119.831 46.6136 120.168 47.0162C120.459 47.361 120.745 47.8601 121.025 48.4205C121.317 49.0037 121.645 49.7408 122.008 50.6233C122.734 52.2695 123.427 53.3517 124.052 53.977C124.844 54.7692 126.381 55.5696 128.883 56.2712C130.101 56.5848 131.097 56.898 131.841 57.2168C132.213 57.3763 132.559 57.5528 132.85 57.7537C133.115 57.9375 133.449 58.2197 133.649 58.6349C134.009 59.3603 134.245 60.317 134.406 61.4223C134.57 62.5499 134.666 63.9199 134.701 65.5203C134.77 67.1189 134.759 68.4597 134.657 69.5238C134.561 70.5324 134.369 71.4885 133.934 72.1577C133.53 72.786 132.821 73.024 132.345 73.1382C131.794 73.2703 131.116 73.3338 130.347 73.3523C129.576 73.3882 128.874 73.3596 128.268 73.2385C127.672 73.1193 127.051 72.8867 126.582 72.4174C126.195 72.031 125.8 71.5509 125.621 70.9922C124.239 70.1254 122.895 69.3816 121.587 68.7587L121.578 68.7545L121.569 68.7503C118.528 67.2447 116.029 66.4579 114.04 66.2902L107.475 72.8557C108.922 73.4192 110.534 74.1409 112.307 75.0156L112.422 75.0725L112.524 75.1515C112.93 75.4673 113.174 75.9116 113.333 76.2951C113.501 76.7007 113.63 77.1794 113.734 77.7045C113.94 78.7539 114.071 80.1426 114.141 81.8416C114.245 83.5439 114.249 84.9543 114.136 86.0448C114.079 86.5915 113.99 87.0939 113.853 87.529C113.72 87.9493 113.512 88.4052 113.156 88.7617C112.424 89.4937 111.317 89.7112 110.25 89.748C109.139 89.7863 108.103 89.642 107.25 89.1907L107.082 89.1017L106.948 88.9673C106.651 88.6702 106.069 88.1489 105.172 87.3841C104.534 86.9569 103.443 86.4476 101.818 85.8731C100.32 85.3435 98.4323 84.7801 96.1468 84.1838L92.7898 87.5408C94.0592 87.926 95.5009 88.4097 97.1118 88.9896C98.4416 89.456 99.5147 89.8658 100.318 90.2179C100.72 90.3939 101.071 90.5629 101.361 90.7245C101.631 90.8748 101.927 91.0619 102.157 91.2914C102.472 91.6066 102.666 92.0264 102.798 92.3719C102.942 92.7518 103.071 93.2102 103.189 93.7287C103.426 94.7657 103.646 96.1565 103.853 97.8815C104.094 99.6077 104.223 101 104.223 102.028C104.223 102.538 104.192 103.014 104.105 103.418C104.032 103.754 103.861 104.35 103.334 104.727L103.329 104.73L103.324 104.734C102.421 105.366 101.268 105.737 99.9564 105.925C98.7872 106.102 97.6436 106.125 96.7707 105.717L96.7552 105.71L96.7399 105.703C96.3315 105.498 96.1082 105.153 96.0021 104.968C95.8759 104.747 95.7766 104.498 95.6948 104.252L95.6758 104.195L95.6623 104.137C95.6342 104.015 95.607 103.926 95.584 103.863C94.2886 103.153 92.8915 102.536 91.3905 102.014L91.3785 102.01L91.3667 102.005C87.7758 100.675 84.0698 99.861 80.2455 99.5618L79.476 99.5015L79.178 98.7895C77.1697 93.9898 76.0624 91.3262 75.8767 90.8449C75.2699 89.3014 74.8469 88.0285 74.6369 87.055C74.5328 86.5721 74.4675 86.1032 74.4806 85.6825C74.4924 85.306 74.5733 84.7068 75.0301 84.2499L113.681 45.5992C113.985 45.2955 114.348 45.1768 114.608 45.1266C114.877 45.0748 115.149 45.0735 115.395 45.0907Z" fill="#231F20"/>
<path d="M48.4721 103.771C49.1602 104.253 50.1063 104.58 51.3105 104.752C52.4458 104.924 53.2716 104.889 53.7876 104.648C53.9253 104.58 54.0629 104.339 54.2005 103.926C54.3037 103.479 54.4413 103.169 54.6134 102.997C54.6822 102.928 54.7682 102.877 54.8714 102.842C56.2476 102.085 57.727 101.431 59.3097 100.881C63.0254 99.5048 66.8616 98.6619 70.8181 98.3522C72.848 93.5011 73.949 90.852 74.121 90.4047C75.3252 87.3426 75.7036 85.588 75.2564 85.1407L36.4475 46.3319C36.2067 46.091 35.467 46.1426 34.2284 46.4867C32.9554 46.8651 32.1469 47.2608 31.8028 47.6737C31.4244 48.1209 30.8739 49.2219 30.1514 50.9765C29.3945 52.6968 28.6204 53.9526 27.8291 54.7439C26.7969 55.776 24.9906 56.6534 22.4103 57.3759C20.0019 57.9952 18.6773 58.5628 18.4365 59.0789C17.886 60.1799 17.5764 62.313 17.5075 65.4782C17.3699 68.6435 17.5592 70.6218 18.0752 71.4131C18.3161 71.7916 19.1762 71.998 20.6556 72.0324C22.1006 72.1012 23.0468 71.912 23.494 71.4647C23.8725 71.0863 24.0961 70.7594 24.1649 70.4842C24.2337 70.2089 24.3197 70.0541 24.423 70.0197C25.9368 69.0564 27.4162 68.2307 28.8612 67.5426C32.2673 65.8567 35.1401 64.9794 37.4797 64.9106L45.8917 73.3226C44.0682 73.9075 41.8663 74.8364 39.2859 76.1094C38.6666 76.5911 38.2882 78.5178 38.1506 81.8894C37.9441 85.2611 38.1506 87.2566 38.7699 87.8759C39.1483 88.2544 39.8364 88.4608 40.8342 88.4952C41.8319 88.5296 42.6232 88.392 43.2081 88.0823C43.5521 87.7383 44.1886 87.1706 45.1176 86.3793C46.6658 85.3127 50.0719 84.1086 55.3359 82.7668L60.7547 88.1856C59.1032 88.5984 56.9873 89.2693 54.4069 90.1983C51.7577 91.1272 50.2267 91.7981 49.8139 92.211C49.3322 92.6926 48.8849 94.6537 48.4721 98.0942C47.9904 101.535 47.9904 103.427 48.4721 103.771Z" fill="white"/>
<path fill-rule="evenodd" clip-rule="evenodd" d="M36.4139 44.96C36.6754 45.0105 37.04 45.1296 37.345 45.4346L76.1539 84.2435C76.6127 84.7022 76.6939 85.3038 76.7057 85.6819C76.7189 86.1043 76.6533 86.5752 76.5488 87.06C76.3379 88.0375 75.9132 89.3157 75.3038 90.8656C75.1172 91.3492 74.0054 94.0237 71.9891 98.8425L71.6899 99.5575L70.9172 99.6179C67.0773 99.9185 63.3562 100.736 59.7505 102.072L59.7386 102.076L59.7267 102.08C58.2195 102.604 56.8166 103.224 55.516 103.936C55.4929 104 55.4655 104.089 55.4373 104.212L55.4237 104.27L55.4047 104.328C55.3225 104.574 55.2229 104.824 55.0961 105.046C54.9896 105.233 54.7654 105.579 54.3553 105.784L54.34 105.792L54.3244 105.799C53.4479 106.208 52.2995 106.185 51.1254 106.008C49.8084 105.819 48.6508 105.446 47.7442 104.811L47.7392 104.808L47.7343 104.804C47.205 104.426 47.033 103.828 46.9603 103.49C46.8729 103.085 46.8415 102.607 46.8415 102.094C46.8415 101.062 46.971 99.6642 47.2133 97.9309C47.4214 96.1989 47.6422 94.8023 47.8797 93.761C47.9984 93.2404 48.1276 92.7801 48.2727 92.3987C48.4046 92.0517 48.5998 91.6302 48.9164 91.3137C49.1468 91.0833 49.4445 90.8954 49.7151 90.7446C50.0062 90.5823 50.3589 90.4126 50.7623 90.2358C51.5692 89.8823 52.6466 89.4708 53.9818 89.0025C55.5994 88.4203 57.0469 87.9346 58.3216 87.5478L54.9509 84.1771C52.656 84.7758 50.7604 85.3415 49.2564 85.8732C47.6246 86.4501 46.5289 86.9615 45.8883 87.3904C44.988 88.1584 44.4039 88.6819 44.1056 88.9801L43.9707 89.1151L43.802 89.2044C42.9459 89.6576 41.9058 89.8025 40.7904 89.764C39.7186 89.7271 38.6073 89.5087 37.8723 88.7737C37.5144 88.4158 37.3057 87.9579 37.1724 87.5359C37.0345 87.0991 36.9448 86.5946 36.888 86.0457C36.7747 84.9507 36.7786 83.5345 36.8829 81.8251C36.9529 80.1192 37.0852 78.7249 37.2921 77.6713C37.3957 77.144 37.5253 76.6633 37.694 76.2561C37.8535 75.871 38.0989 75.4249 38.5067 75.1078L38.6086 75.0285L38.7244 74.9714C40.5046 74.0931 42.1231 73.3685 43.5764 72.8026L36.984 66.2102C34.9868 66.3786 32.4785 67.1687 29.4243 68.6804L29.4156 68.6847L29.4069 68.6888C28.0933 69.3143 26.7432 70.0612 25.3565 70.9315C25.1762 71.4925 24.7796 71.9745 24.3915 72.3625C23.9203 72.8338 23.2964 73.0673 22.6979 73.187C22.0901 73.3086 21.3847 73.3373 20.6107 73.3013C19.8388 73.2827 19.1573 73.2189 18.6047 73.0863C18.1269 72.9716 17.4143 72.7326 17.0088 72.1018C16.5727 71.4298 16.3796 70.4698 16.2827 69.457C16.1805 68.3886 16.1695 67.0423 16.2389 65.4371C16.2742 63.8302 16.3709 62.4547 16.5353 61.3224C16.6964 60.2125 16.9337 59.2518 17.2953 58.5234C17.4958 58.1066 17.8313 57.8233 18.0978 57.6388C18.3892 57.4371 18.7368 57.2599 19.1106 57.0997C19.8574 56.7796 20.8579 56.4651 22.0808 56.1503C24.5925 55.4457 26.1361 54.6421 26.9315 53.8466C27.5593 53.2188 28.2551 52.1322 28.9836 50.4792C29.3487 49.5931 29.6781 48.853 29.9709 48.2674C30.2522 47.7047 30.539 47.2035 30.8311 46.8573C31.1694 46.4531 31.6403 46.157 32.1093 45.9274C32.5988 45.6879 33.1913 45.4711 33.8667 45.2703L33.8777 45.267L33.8887 45.264C34.5397 45.0831 35.1291 44.9585 35.6238 44.924C35.871 44.9067 36.1444 44.908 36.4139 44.96ZM34.5791 47.7069C33.987 47.8833 33.5423 48.0524 33.2252 48.2076C33.0671 48.285 32.9542 48.3524 32.8769 48.4066C32.8033 48.4582 32.7776 48.487 32.7775 48.487L32.7749 48.4902L32.7718 48.4938C32.6864 48.5948 32.5096 48.8663 32.2414 49.4027C31.9853 49.915 31.6801 50.5978 31.3251 51.4601L31.3193 51.4741L31.3132 51.488C30.53 53.2679 29.6797 54.6885 28.7266 55.6417C27.4591 56.9092 25.394 57.8588 22.7525 58.5984L22.7395 58.6021L22.7264 58.6054C21.547 58.9087 20.6856 59.1866 20.1106 59.433C19.8221 59.5567 19.6428 59.6568 19.5428 59.726C19.5382 59.7292 19.5339 59.7322 19.53 59.7351C19.3578 60.1178 19.1841 60.7461 19.0475 61.6871C18.9027 62.6847 18.8103 63.9537 18.7765 65.5061L18.7762 65.5199L18.7756 65.5336C18.7081 67.0877 18.723 68.3085 18.8098 69.2153C18.8804 69.9534 18.9901 70.374 19.0726 70.5838C19.1053 70.5941 19.1465 70.6056 19.1972 70.6178C19.501 70.6907 19.9839 70.7474 20.6851 70.7637L20.7006 70.7641L20.716 70.7648C21.3809 70.7965 21.8657 70.7646 22.2 70.6977C22.5061 70.6365 22.5992 70.5635 22.6007 70.5633C22.7499 70.4137 22.8434 70.2992 22.898 70.2193C22.922 70.1842 22.9345 70.1616 22.94 70.1511C22.9873 69.9673 23.0575 69.7506 23.1715 69.5455C23.261 69.3843 23.4543 69.0915 23.8102 68.9055C25.3358 67.9381 26.8348 67.1024 28.3069 66.4009C31.783 64.6813 34.8432 63.7185 37.4424 63.6421L37.9899 63.626L48.2601 73.8962L46.2794 74.5315C44.5908 75.0731 42.5282 75.9352 40.082 77.1327C40.0699 77.1573 40.0555 77.1885 40.0393 77.2277C39.9586 77.4225 39.8688 77.7245 39.7831 78.1606C39.6121 79.031 39.4866 80.2815 39.4188 81.9415L39.4183 81.9544L39.4175 81.9673C39.3161 83.6238 39.3203 84.8868 39.4131 85.7845C39.4596 86.2334 39.5247 86.5546 39.5932 86.7715C39.6344 86.9019 39.668 86.9665 39.6809 86.9894C39.7084 87.0091 39.7813 87.0531 39.9345 87.0991C40.1426 87.1615 40.449 87.2122 40.8779 87.2269C41.6381 87.2532 42.1464 87.1595 42.4729 87.0264C42.8717 86.6442 43.486 86.1021 44.2945 85.4133L44.344 85.3712L44.3975 85.3343C45.313 84.7036 46.6798 84.0916 48.4103 83.4798C50.1624 82.8604 52.3698 82.2132 55.0224 81.5371L55.7225 81.3586L63.2374 88.8735L61.0625 89.4172C59.4695 89.8155 57.3982 90.4707 54.8369 91.3928L54.8319 91.3946L54.827 91.3963C53.5153 91.8562 52.5044 92.2441 51.7812 92.561C51.4191 92.7196 51.1461 92.8532 50.9513 92.9618C50.838 93.025 50.7709 93.069 50.7362 93.093C50.7191 93.1256 50.6875 93.1906 50.6455 93.301C50.5583 93.5303 50.4596 93.8656 50.3547 94.3255C50.1455 95.2429 49.9367 96.543 49.7323 98.2457L49.7308 98.2581L49.7291 98.2705C49.4909 99.972 49.3801 101.236 49.3801 102.094C49.3801 102.459 49.4006 102.712 49.4268 102.874C49.8941 103.14 50.563 103.363 51.49 103.495L51.4953 103.496L51.5006 103.497C52.2392 103.609 52.7076 103.603 52.9816 103.566C53.1008 103.077 53.3044 102.511 53.7159 102.1C53.9028 101.913 54.1166 101.779 54.3379 101.687C55.7546 100.914 57.2694 100.248 58.8807 99.6866C62.4595 98.3623 66.148 97.5181 69.9434 97.1546C71.7895 92.7411 72.7812 90.3528 72.9363 89.9493L72.9381 89.9449L72.9398 89.9404C73.5338 88.43 73.8998 87.3012 74.0673 86.5248C74.1357 86.2072 74.1622 85.9875 74.1677 85.8473L35.7784 47.4581C35.5333 47.4778 35.1434 47.5506 34.5791 47.7069ZM74.1627 85.6988C74.1631 85.6984 74.1645 85.7047 74.1659 85.7188C74.163 85.7062 74.1624 85.6991 74.1627 85.6988ZM49.4674 103.046C49.467 103.046 49.4635 103.039 49.4581 103.02C49.465 103.036 49.4677 103.045 49.4674 103.046ZM19.4827 59.7726C19.4825 59.7726 19.4845 59.7706 19.4888 59.7668C19.485 59.7707 19.4828 59.7726 19.4827 59.7726Z" fill="#231F20"/>
</svg>
