<svg xmlns="http://www.w3.org/2000/svg" data-jdenticon-value="FMC" width="80" height="80" viewBox="0 0 80 80" preserveAspectRatio="xMidYMid meet"><path fill="#9f84d6" d="M40 23L23 23L23 6ZM40 23L40 6L57 6ZM40 57L57 57L57 74ZM40 57L40 74L23 74ZM23 40L6 40L6 23ZM57 40L57 23L74 23ZM57 40L74 40L74 57ZM23 40L23 57L6 57ZM27 27L39 27L39 39L27 39ZM53 27L53 39L41 39L41 27ZM53 53L41 53L41 41L53 41ZM27 53L27 41L39 41L39 53Z"></path><path fill="#643db7" d="M23 6L23 23L6 23ZM74 23L57 23L57 6ZM57 74L57 57L74 57ZM6 57L23 57L23 74Z"></path></svg>
