<svg width="28" height="28" viewBox="0 0 28 28" fill="none" xmlns="http://www.w3.org/2000/svg">
<circle cx="14" cy="14" r="14" fill="#1B76FF"/>
<path fill-rule="evenodd" clip-rule="evenodd" d="M23.9923 12.0364L24.4467 12.0367C25.3382 12.0377 25.8755 12.0421 25.8755 12.0599C27.2682 22.1621 16.7118 29.7563 7.45455 24.0282C7.74713 23.5691 8.68079 22.0191 8.66583 22.009C16.0682 26.801 25.0329 20.4195 23.488 12.0364L23.8707 12.0364C23.9118 12.0364 23.9523 12.0364 23.9923 12.0364ZM14.5025 6.36364C14.9298 6.36364 15.2795 6.71218 15.2795 7.13818V7.92241C16.0808 7.95145 16.8627 8.20318 17.5328 8.65339C17.9505 8.93416 18.0136 9.52475 17.6445 9.8733L17.0618 10.4203C16.7995 10.6624 16.4159 10.6769 16.1051 10.4978C15.8088 10.3283 15.4786 10.2364 15.1386 10.2364H12.9533C12.4045 10.2364 11.9577 10.7447 11.9577 11.3691C11.9577 11.8823 12.2588 12.3325 12.6959 12.468L16.1925 13.5282C17.6008 13.959 18.5818 15.3242 18.5818 16.849C18.5818 18.7515 17.0958 20.3006 15.2698 20.3055V21.08C15.2698 21.506 14.9201 21.8545 14.4927 21.8545H13.7157C13.2884 21.8545 12.9387 21.506 12.9387 21.08V20.2958C12.1374 20.2667 11.3555 20.015 10.6853 19.5648C10.2677 19.284 10.2046 18.6934 10.5736 18.3449L11.1564 17.7979C11.4187 17.5558 11.8023 17.5413 12.1131 17.7204C12.4094 17.8898 12.7396 17.9818 13.0795 17.9818H15.2649C15.8137 17.9818 16.2605 17.4735 16.2605 16.849C16.2605 16.3359 15.9594 15.8857 15.5223 15.7502L12.0257 14.69C10.6174 14.2592 9.63636 12.894 9.63636 11.3691C9.63636 9.46666 11.1224 7.91757 12.9484 7.91273V7.13818C12.9484 6.71218 13.2981 6.36364 13.7254 6.36364H14.5025ZM20.5455 3.97175C20.2529 4.43094 19.3192 5.98087 19.3342 5.991C11.9318 1.19896 2.96713 7.5805 4.51197 15.9636L4.12927 15.9636C4.08823 15.9636 4.04771 15.9636 4.0077 15.9636L3.55334 15.9633C2.66184 15.9623 2.1245 15.9579 2.1245 15.9401C0.731809 5.83794 11.2882 -1.75633 20.5455 3.97175Z" fill="white"/>
</svg>
