<svg width="" xmlns="http://www.w3.org/2000/svg" viewBox="0 0 40.05 35"><path d="M34.2436 13.4146C32.9551 13.4146 31.6653 13.4328 30.3768 13.4041C29.95 13.395 29.79 13.5517 29.7099 13.933C29.4325 15.2716 29.1457 16.6101 28.8336 17.9408C28.7282 18.3901 28.8616 18.5011 29.3111 18.4972C31.2225 18.4776 33.1339 18.4998 35.0452 18.4815C35.4854 18.4776 35.6041 18.5533 35.4921 19.0208C35.0666 20.7956 34.6651 22.5768 34.3183 24.3672C34.2249 24.8465 34.0102 24.8896 33.6087 24.887C31.72 24.8726 29.83 24.8935 27.9413 24.8713C27.4918 24.8661 27.2824 24.9601 27.181 25.4342C26.5448 28.4064 25.8539 31.3682 25.2243 34.3431C25.1149 34.8576 24.9228 35.0026 24.404 35C17.0039 34.9647 9.6039 34.9503 2.20385 34.9229C1.60497 34.9203 1.00742 34.8537 0.40853 34.8341C0.0443961 34.8224 -0.0503052 34.6461 0.023055 34.3274C0.44721 32.4848 0.668625 30.6095 0.971403 28.7473C1.03276 28.3672 1.19949 28.2575 1.58496 28.2654C2.76273 28.2876 3.94049 28.2719 5.11826 28.2628C9.75996 28.2262 14.4017 28.1753 19.0434 28.1622C19.5902 28.1609 19.7703 27.9533 19.8703 27.491C20.9761 22.3522 22.0925 17.2148 23.2035 12.0773C23.5157 10.633 23.8291 9.18863 24.1159 7.74038C24.2159 7.23107 24.384 6.97119 25.0055 7.00254C26.7995 7.09134 28.6055 7.10962 30.3942 7.07306C33.3913 7.01168 36.3884 7.09395 39.3841 7.00645C40.0244 6.98817 40.0644 7.22324 39.9497 7.7234C39.5469 9.48116 39.1534 11.2415 38.7879 13.0058C38.7079 13.3911 38.4972 13.4211 38.1784 13.4198C36.8659 13.4093 35.5547 13.4146 34.2436 13.4146Z" fill="#fec803"/><path d="M17.9299 7.02545C18.8153 6.96412 19.6431 7.10112 20.4721 7.0959C21.0012 7.09199 21.0576 7.27074 20.9615 7.74306C20.3747 10.6292 19.8173 13.5218 19.2446 16.4105C18.6629 19.3449 18.067 22.2753 17.4943 25.211C17.3982 25.7055 17.2291 25.9234 16.6704 25.9143C15.2648 25.8921 13.8579 25.9652 12.4511 25.9978C12.2589 26.0017 12.0667 26.0017 11.8745 25.9873C10.9263 25.9169 10.9058 25.9104 11.0929 24.9488C11.9578 20.527 12.8342 16.1091 13.7068 11.6886C13.9707 10.3486 14.2526 9.01258 14.4871 7.66738C14.5575 7.26161 14.719 7.11678 15.1098 7.11808C16.0669 7.1233 17.0202 6.93281 17.9299 7.02545Z" fill="#fec803"/><path d="M7.82662 12.0165C8.70812 12.0165 9.59214 12.0517 10.4711 12.003C10.9932 11.9732 11.0575 12.1653 10.9642 12.6522C10.3236 15.9972 9.70059 19.3449 9.07005 22.6925C8.90107 23.5934 8.71947 24.4915 8.55805 25.395C8.5013 25.7142 8.41933 25.9036 8.04731 25.9077C6.39151 25.9198 4.73571 25.9888 3.07864 25.9996C1.95502 26.0078 1.87305 25.886 2.10509 24.7431C2.9311 20.6623 3.76845 16.5829 4.58816 12.5007C4.66509 12.1152 4.8202 11.9976 5.18087 12.0097C6.06237 12.0354 6.94512 12.0165 7.82662 12.0165Z" fill="#fec803"/><path d="M28.9082 0.00715009C29.8227 0.00715009 30.7372 0.0162298 31.6516 0.00196166C31.9708 -0.00322677 32.0449 0.0733026 31.9768 0.442978C31.7353 1.75176 31.5273 3.06962 31.3337 4.38748C31.2643 4.85703 31.0778 5.0075 30.632 4.99972C28.9429 4.96859 27.2526 4.97248 25.5635 4.99712C25.1044 5.00361 24.9204 4.91411 25.0315 4.35765C25.2885 3.07611 25.5216 1.78808 25.7069 0.492268C25.7703 0.0473604 25.9436 -0.00711809 26.2867 0.00066455C27.1593 0.0201212 28.0332 0.00715009 28.9082 0.00715009Z" fill="#fec803"/></svg>