<svg xmlns="http://www.w3.org/2000/svg" width="" height="" viewBox="0 0 37.4 54">
    <g fill="none" fill-rule="evenodd">
        <g fill-rule="nonzero">
            <g>

                <path fill="#31CB9E" d="M14.994 29.904L34.479 41.09c.635.371.695 1.27.108 1.724L21.425 52.85c-.599.455-1.485.132-1.629-.61l-4.802-22.336zm-.587-28.43c.767-.588 1.844.095 1.64 1.041l-5.173 24.072 5.174 24.06c.203.946-.874 1.628-1.64 1.042L1.161 41.58C.479 41.066.084 40.25.084 39.4v-25.64c0-.85.395-1.665 1.078-2.18zm21.306 13.76c.694-.396 1.556.095 1.556.898V37.03c0 .79-.862 1.293-1.556.898L15.94 26.587zM19.784.934c.156-.742 1.03-1.078 1.641-.61l13.15 10.035c.587.455.527 1.354-.12 1.725L14.982 23.269z" transform="translate(-631 -4370) translate(631 4370)"/>
            </g>
        </g>
    </g>
</svg>