<svg width="256" height="256" xmlns="http://www.w3.org/2000/svg" version="1.1" preserveAspectRatio="xMidYMid">
 <g>
  <title>Layer 1</title>
  <g>
   <rect fill="#000" x="0" y="0" width="256" height="256"/>
   <path d="m72.20091,55.30481c39.87559,0 72.19846,32.54855 72.19846,72.69642c0,40.14786 -32.32532,72.69396 -72.19846,72.69396c-39.87313,0 -72.20091,-32.5461 -72.20091,-72.69396c0,-40.14787 32.32533,-72.69642 72.20091,-72.69642zm115.29972,4.25837c19.93779,0 36.10046,30.63768 36.10046,68.43805l0.00245,0c0,37.79055 -16.16266,68.43804 -36.10046,68.43804c-19.93779,0 -36.10046,-30.64749 -36.10046,-68.43804c0,-37.79056 16.16021,-68.43805 36.09801,-68.43805zm55.80276,7.12835c7.01061,0 12.69661,27.44881 12.69661,61.3097c0,33.85107 -5.68355,61.30969 -12.69661,61.30969c-7.01306,0 -12.69415,-27.45126 -12.69415,-61.30969c0,-33.85844 5.68355,-61.3097 12.69415,-61.3097z" fill="#fff"/>
  </g>
 </g>

</svg>