<svg fill="none" xmlns="http://www.w3.org/2000/svg" height="" width="" viewBox="8 8 120 120">
<g clip-path="url(#clip0)">
<rect width="353" height="143" fill=""/>
<path d="M67.9853 130.609C101.027 130.609 127.812 103.847 127.812 70.8354C127.812 37.8234 101.027 11.0619 67.9853 11.0619C34.9442 11.0619 8.15901 37.8234 8.15901 70.8354C8.15901 103.847 34.9442 130.609 67.9853 130.609Z" fill="#04223C"/>
<path d="M55.5117 54.924L34.283 33.7141V43.6136L50.3418 59.6582C56.0138 65.3252 56.0138 74.5193 50.3418 80.1863L34.283 96.2309V106.13L55.5117 84.9205C63.8039 76.6434 63.8039 63.2089 55.5117 54.924Z" fill="#F59980"/>
<path d="M61.1523 76.2515H56.0216V62.7778H61.1523C63.9687 62.7778 66.2516 65.0587 66.2516 67.8726V71.1489C66.2516 73.9707 63.9687 76.2515 61.1523 76.2515Z" fill="#F59980"/>
<path d="M80.459 54.924L101.688 33.7141V43.6136L85.6289 59.6582C79.9569 65.3252 79.9569 74.5193 85.6289 80.1863L101.688 96.2309V106.13L80.459 84.9205C72.1668 76.6434 72.1668 63.2089 80.459 54.924Z" fill="#F59980"/>
<path d="M74.8262 76.2515H79.9569V62.7778H74.8262C72.0098 62.7778 69.7269 65.0587 69.7269 67.8726V71.1489C69.7191 73.9707 72.0098 76.2515 74.8262 76.2515Z" fill="#F59980"/>
</g>
<defs>
<clipPath id="clip0">
<rect width="353" height="143" fill=""/>
</clipPath>
</defs>
</svg>