<svg xmlns="http://www.w3.org/2000/svg" viewBox="0 0 60 60"><g fill-rule="nonzero" fill="none"><path style="transition:fill 0.3s ease-in-out" d="M13.487964.025067 C6.015456.130506.010218 6.212755 0 13.686 v32.628 c-.00225 5.535029 3.331107 10.525988 8.44479 12.644192 5.113684 2.118204 10.999884.946194 14.91221-2.969192 l9.287-9.289c.22107 7.469981 6.395528 13.380372 13.868036 13.274933 C53.984544 59.869494 59.989782 53.787245 60 46.314 V13.686c.00225-5.535028-3.331107-10.525988-8.44479-12.644192 C46.441525-1.076396 40.555325.095614 36.643 4.011 L27.356 13.3C27.13493 5.830018 20.960472-.080372 13.487964.025067z" fill="hsla(158, 100%, 44%, 1)"></path><ellipse style="transition:cx 0.3s ease-in-out, cy 0.3s ease-in-out" fill="#FFFFFF" rx="13.686" ry="13.686" cx="46.314" cy="13.686"></ellipse></g></svg>