<svg width="28" height="24" viewBox="0 0 28 24" fill="none" xmlns="http://www.w3.org/2000/svg">
<path d="M25.8314 4.86338C24.735 3.26866 23.6387 2.07262 22.4426 1.27526C20.1502 -0.219785 17.4591 -0.419125 13.9707 0.776914C11.6783 1.4746 8.78786 3.468 6.19644 6.15909C3.90403 8.4515 2.10997 11.1426 1.0136 13.8337C-0.182435 16.6244 -0.282105 19.2158 0.515254 21.1096C1.41228 23.103 3.50535 24 5.49875 24C6.09677 24 6.79446 23.9003 7.39248 23.701C10.0836 23.0033 12.7747 20.9102 14.5687 19.3155C14.6684 19.2158 14.768 19.0165 14.768 18.8172C14.768 18.6178 14.6684 18.5182 14.5687 18.3188C14.3694 18.0198 13.9707 17.9201 13.572 18.2191C11.0803 20.1129 8.88753 21.2092 6.89413 21.3089C6.29611 19.4152 6.69479 17.0231 7.9905 14.4317C8.68819 13.136 9.58521 11.8403 10.6816 10.6442C11.778 9.4482 12.974 8.4515 14.3694 7.65414C14.768 7.4548 14.768 6.95645 14.5687 6.65744C14.469 6.4581 14.3694 6.35843 14.17 6.35843C13.9707 6.25876 13.7714 6.35843 13.572 6.4581C12.077 7.35513 10.6816 8.35183 9.48555 9.64754C8.18984 10.9432 7.19314 12.3386 6.29611 13.8337C5.19974 15.8271 4.50205 17.8205 4.40238 19.6145C4.30271 20.1129 4.0037 20.3122 3.80436 20.3122C3.50535 20.4119 3.10667 20.3122 2.90733 20.0132C2.0103 18.8172 2.0103 16.8238 2.90733 14.332C3.80436 12.0396 5.39908 9.54786 7.49215 7.55447C9.58521 5.4614 11.9773 3.86668 14.2697 2.96965C15.4657 2.57097 16.5621 2.27196 17.4591 2.27196C18.8545 2.27196 19.9509 2.77031 20.5489 3.66734C22.343 6.55777 21.3463 9.84687 19.2532 13.734C19.1535 13.9333 19.1535 14.1327 19.1535 14.332C19.2532 14.5314 19.3529 14.631 19.4525 14.7307C19.7515 14.93 20.1502 14.93 20.4492 14.5314C21.5456 13.0363 22.4426 11.4416 23.0407 9.94654C23.1403 9.84687 23.1403 9.64754 23.3397 9.64754C23.4393 9.54786 23.6387 9.54786 23.7383 9.54786C24.137 9.54786 24.3364 9.7472 24.5357 10.0462C24.735 10.4449 24.8347 11.1426 24.8347 11.9399C24.8347 12.6376 24.735 13.435 24.5357 14.332C23.838 17.4218 21.7449 20.8106 19.3529 22.9036C19.1535 23.0033 19.1535 23.2026 19.1535 23.402C19.1535 23.6013 19.2532 23.701 19.3529 23.8007C19.4525 23.9003 19.6519 24 19.7515 24C19.9509 24 20.1502 24 20.2499 23.9003C23.4393 21.4086 25.9311 17.8205 26.9278 14.4317C27.8248 10.9432 27.4261 7.25546 25.8314 4.86338Z" fill="url(#paint0_linear_713_941)"/>
<defs>
<linearGradient id="paint0_linear_713_941" x1="0.433824" y1="12.0396" x2="27.1205" y2="12.0396" gradientUnits="userSpaceOnUse">
<stop stop-color="#EB0000"/>
<stop offset="1" stop-color="#FF5D00"/>
</linearGradient>
</defs>
</svg>
