<svg class="sc-bdfBwQ eRAmrR desktop-icon" color="text" xmlns="http://www.w3.org/2000/svg" width="" viewBox="0 0 64 64"><path d="M56.9126 1.27325C55.6866 -0.130077 53.6009 -0.406266 52.0347 0.608907C49.9079 1.98238 46.9849 4.66587 44.5216 9.76039C44.4095 9.99552 44.5141 10.2754 44.7533 10.3837C46.2971 11.0741 47.7436 11.884 49.1005 12.7574C49.1752 12.8059 49.2575 12.7313 49.2238 12.6492C49.0631 12.2573 49.0631 11.8019 49.2724 11.4026C50.0536 9.89475 50.861 8.68923 51.6497 7.72631C52.6589 6.49094 54.5802 6.67382 55.3988 8.03982C57.2602 11.1525 58.0452 14.2466 58.2807 16.9711C58.3778 18.0908 57.3126 18.8036 56.3669 18.5498C56.2921 18.5312 56.2398 18.617 56.2921 18.673C59.3422 21.8006 61.3158 24.6857 62.0708 25.8688C62.2091 26.0853 62.5343 26.033 62.6016 25.7829C63.7566 21.4535 65.3228 10.9025 56.9126 1.27325Z" fill="white"/><path d="M33.2255 17.5201C33.7787 14.7284 34.6197 12.0225 35.7074 9.50694C35.9691 8.90232 35.5579 8.21185 34.9001 8.17453C34.8963 8.17453 34.8926 8.17453 34.8851 8.17453C34.8739 8.17453 34.8627 8.1708 34.8477 8.1708C34.3469 8.14467 33.8422 8.12601 33.3339 8.12601C33.3115 8.12601 33.2928 8.12601 33.2704 8.12601C33.2479 8.12601 33.2292 8.12601 33.2068 8.12601C29.6185 8.14094 26.2282 8.79408 23.0735 9.95855C22.6175 10.1265 22.1054 9.92122 21.8923 9.48455C19.459 4.56917 16.5995 1.96033 14.5138 0.609252C12.9476 -0.402188 10.8619 -0.129731 9.63587 1.2736C1.00516 11.1529 2.88156 22.0137 4.0403 26.1192C4.11132 26.3693 4.07394 26.6343 3.93937 26.8582C2.97501 28.4966 2.10782 30.1911 1.35278 31.9154C-0.172271 35.3901 -0.415234 39.2978 0.661269 42.9367C0.986463 44.0303 1.38641 45.2358 1.88729 46.501C2.38816 47.7663 4.16364 47.8558 4.78039 46.6429C7.81927 40.6974 16.222 38.0064 21.2756 41.4102C21.9334 41.8544 22.8866 41.7387 23.4136 41.1452C24.8826 39.4844 28.0859 36.7636 33.2255 36.6516C34.2497 36.6292 34.6758 36.7412 34.687 36.7412C34.074 35.2968 33.5769 33.7405 33.2105 32.0796V32.1804C33.2105 32.1132 33.2031 32.0498 33.1881 31.9863C32.7246 29.8477 32.4705 27.5412 32.4705 25.0704C32.4705 22.54 32.7358 19.9983 33.2255 17.5201ZM8.60796 13.8401C8.94063 12.4218 9.4415 10.9476 10.1741 9.45843C11.2917 7.18175 14.4689 6.98767 15.8706 9.10013C16.1472 9.51814 16.4238 9.96601 16.6967 10.4512C17.3209 11.556 16.992 12.9555 15.9491 13.6759C14.7979 14.4671 13.6952 15.3293 12.6374 16.2511C10.8469 17.8112 8.06597 16.1504 8.60796 13.8401ZM19.3506 35.2707H17.5938H17.5751H15.8183C13.8036 35.2707 12.2038 33.4643 12.5701 31.4862C12.97 29.3327 15.0146 27.4591 17.5751 27.4516C17.5788 27.4516 17.5826 27.4516 17.5863 27.4516C17.59 27.4516 17.5938 27.4516 17.5975 27.4516C20.1579 27.4628 22.2025 29.3327 22.6025 31.4862C22.9651 33.4643 21.3653 35.2707 19.3506 35.2707Z" fill="white"/><path d="M33.2702 8.00635C33.2589 8.00635 33.2477 8.00635 33.2402 8.00635C33.2402 8.20841 33.2178 8.02132 33.2178 8.02132C33.2178 8.02132 33.2402 8.22338 33.2402 8.02132C33.2552 8.02132 33.2664 8.02132 33.2814 8.02132C33.4984 8.02132 33.7155 8.03629 33.9287 8.04003C33.7042 8.03629 33.4909 8.01009 33.2702 8.00635Z" fill="white"/><path d="M48.9696 27.4551C48.9659 27.4551 48.9622 27.4551 48.9584 27.4551C48.9547 27.4551 48.9509 27.4551 48.9472 27.4551C45.243 27.47 42.4957 30.9335 43.3853 34.0985C43.389 34.1059 43.389 34.1134 43.3927 34.1209C43.404 34.1619 43.4189 34.203 43.4301 34.244C43.4413 34.2814 43.4563 34.3224 43.4712 34.3597C43.6693 34.8076 44.1179 35.1249 44.6412 35.1249C44.9066 35.1249 45.1495 35.0465 45.3514 34.9084C45.3551 34.9047 45.3589 34.9047 45.3626 34.9009C46.3382 34.1358 47.5754 33.6506 48.9472 33.6469C48.9509 33.6469 48.9547 33.6469 48.9584 33.6469C48.9622 33.6469 48.9659 33.6469 48.9696 33.6469C50.3452 33.6506 51.5787 34.1358 52.5542 34.9009C52.5617 34.9084 52.5692 34.9121 52.5767 34.9196C52.7785 35.0539 53.0215 35.1323 53.2831 35.1323C53.784 35.1323 54.2101 34.8412 54.4232 34.4232C54.4269 34.412 54.4344 34.4045 54.4381 34.3933C54.4755 34.2851 54.5091 34.1806 54.539 34.0724C54.539 34.0612 54.539 34.05 54.5428 34.0388C55.3801 30.8925 52.6514 27.47 48.9696 27.4551Z" fill="white"/><path d="M36.657 40.6375C35.7487 40.1896 34.5825 39.9097 33.3079 39.9097C31.9622 39.9097 30.7362 40.2232 29.8092 40.7158C28.7439 41.2831 28.0674 42.0893 28.0674 42.9477C28.0674 44.2652 29.1775 46.2694 31.581 46.9375C32.0968 47.0831 32.6724 47.1652 33.3079 47.1652C33.8611 47.1652 34.3619 47.1054 34.818 47.0047C37.513 46.4224 38.5483 44.3137 38.5483 42.944C38.5483 42.052 37.812 41.2085 36.657 40.6375Z" fill="white"/><path d="M53.0477 54.4914C52.6589 54.2189 52.6589 53.6591 53.0477 53.3829C54.4083 52.4237 55.2343 50.7591 54.9876 48.9229C54.6998 46.7582 52.8795 45.0563 50.7003 44.892C48.5847 44.7316 46.727 45.9744 45.9831 47.7845C45.1159 49.5835 43.3891 50.886 41.3295 51.1585C41.1164 51.1883 40.8996 51.2033 40.6791 51.2107H40.3876H39.483C37.5879 51.1324 35.6255 49.9642 33.1286 49.9642L33.1249 49.9716V49.9642C30.628 49.9642 28.6694 51.1324 26.7705 51.2107H25.866H25.5744C25.4436 51.207 25.3128 51.1921 25.1819 51.1809C22.8981 50.9793 20.9694 49.5275 20.1246 47.5046C19.2986 45.8251 17.5006 44.7054 15.456 44.8995C13.3142 45.101 11.5462 46.7918 11.2622 48.9229C11.0155 50.7629 11.8415 52.4237 13.2021 53.3866C13.5908 53.6591 13.5908 54.2189 13.2021 54.4951C11.8415 55.4543 11.0155 57.1189 11.2622 58.9552C11.55 61.1161 13.3703 62.8218 15.5457 62.986C17.6576 63.1465 19.5041 61.9074 20.248 60.0972C20.9582 58.6641 22.4421 57.6787 24.1503 57.6787C24.2101 57.6787 24.2699 57.675 24.3297 57.6787C24.3297 57.675 24.3297 57.6825 24.3334 57.6787H42.3798C43.9908 57.787 45.3701 58.7835 46.028 60.1719C46.798 61.9447 48.6295 63.154 50.7265 62.9823C52.8944 62.8069 54.6998 61.1049 54.9876 58.9514C55.2343 57.1114 54.4083 55.4506 53.0477 54.4914Z" fill="#FF9D3B"/></svg>