<?xml version="1.0" encoding="UTF-8"?>
<svg width="46px" height="46px" viewBox="0 0 46 46" version="1.1" xmlns="http://www.w3.org/2000/svg" xmlns:xlink="http://www.w3.org/1999/xlink">
    <!-- Generator: Sketch 61.2 (89653) - https://sketch.com -->
    <title>Group 7</title>
    <desc>Created with Sketch.</desc>
    <defs>
        <linearGradient x1="50%" y1="100%" x2="50%" y2="3.061617e-15%" id="linearGradient-1">
            <stop stop-color="#FFC33D" offset="0%"></stop>
            <stop stop-color="#FF7105" offset="100%"></stop>
        </linearGradient>
    </defs>
    <g id="Page-1" stroke="none" stroke-width="1" fill="none" fill-rule="evenodd">
        <g id="Artboard-Copy" transform="translate(-40.000000, -195.000000)">
            <g id="Group-7" transform="translate(40.000000, 195.000000)">
                <g id="Group-2-Copy-2">
                    <rect id="Rectangle-Copy-8" fill="#312266" x="0" y="0" width="46" height="46" rx="5"></rect>
                    <path d="M31.0472946,10 C36.1249064,10 38.7263989,13.541791 38.7263989,17.7731342 C38.7263989,22.3805968 35.748787,26.047761 30.3263991,26.047761 L30.3263991,26.047761 L27.1607275,26.047761 L17.2851733,37.0081524 C16.716284,37.6395345 15.9062935,38 15.0564238,38 L15.0564238,38 L14.3811064,38 C14.2116403,38 14.0436221,37.9688028 13.8854517,37.907968 C13.1737211,37.6342255 12.8186616,36.8353416 13.0924041,36.123611 L13.0924041,36.123611 L16.985,26 L13,26 C11.6192881,26 10.5,24.8807119 10.5,23.5 C10.5,22.9590745 10.6754447,22.4327404 11,22 L18.524,22 L19.293,20 L12,20 C10.6192881,20 9.5,18.8807119 9.5,17.5 C9.5,16.9590745 9.67544468,16.4327404 10,16 L20.832,16 L21.601,14 L11,14 C9.61928813,14 8.5,12.8807119 8.5,11.5 C8.5,10.9590745 8.67544468,10.4327404 9,10 Z M29.6681901,15.4537313 L27.1607275,15.4537313 L27.1607275,20.5940297 L29.6681901,20.5940297 C31.3607274,20.5940297 32.426399,19.6537312 32.426399,18.0238805 C32.426399,16.425373 31.5174438,15.4537313 29.6681901,15.4537313 L29.6681901,15.4537313 Z" id="Combined-Shape-Copy-2" fill="url(#linearGradient-1)" fill-rule="nonzero"></path>
                </g>
            </g>
        </g>
    </g>
</svg>