<svg viewBox="0 0 24 28" fill="none" xmlns="http://www.w3.org/2000/svg"><g><path id="svg_2" fill="#fed" d="m24.1914,16.8726c-0.4398,-1.14 -0.8796,-0.456 -1.3195,-0.684c-3.2988,-1.14 -2.6391,-6.1562 -2.6391,-6.1562c0,-5.4722 -4.1785,-10.0324 -9.6765,-10.0324l-0.8797,0c-5.2782,0 -9.6766,4.5602 -9.6766,10.0324l0,5.7002c0,2.9641 0.8797,5.9282 2.6391,8.4363c1.9793,2.5081 5.2781,4.7882 10.5562,3.4202c0.22,0 0.4399,-0.2281 0.4399,-0.4561c0.4398,-0.912 1.3195,-1.824 3.0789,-2.052c2.1992,-0.4561 2.1992,-2.5081 2.1992,-2.5081c0,0 -0.2199,-2.2801 1.9793,-2.7361c2.1992,-0.2281 3.7387,-1.8241 3.2988,-2.9642zm-18.2535,-6.3842c-1.5395,0 -2.6391,-1.3681 -2.6391,-2.7361c0,-1.3681 1.0996,-2.7361 2.6391,-2.7361c1.5395,0 2.6391,1.14 2.6391,2.7361c0,1.5961 -1.0996,2.7361 -2.6391,2.7361zm8.357,0c-1.3195,0 -2.639,-1.3681 -2.639,-2.7361c0,-1.3681 1.0996,-2.7361 2.639,-2.7361c1.5395,0 2.6391,1.14 2.6391,2.7361c0,1.5961 -1.0996,2.7361 -2.6391,2.7361z"/></g></svg>