<svg viewBox="20 -2 110 40" class="sc-bdnxRM dpHAro desktop-icon" width="" xmlns="http://www.w3.org/2000/svg"><path d="M24 18a18 18 0 1036.001 0A18 18 0 0024 18z" fill="#121122"></path><path fill-rule="evenodd" clip-rule="evenodd" d="M29.431 13.439c-.22 1.416.039 2.873.308 4.273.104.224.33.374.61.47a9.107 9.107 0 00-.889 3.918c0 5.859 5.672 10.613 12.668 10.613 6.996 0 12.672-4.743 12.672-10.613a9.113 9.113 0 00-.907-3.955c.234-.096.42-.236.512-.433.27-1.4.527-2.857.307-4.273-.206-1.9-.858-2.48-2.816-1.993-.996.231-2.309.82-3.319 1.51-1.889-.937-4.094-1.475-6.449-1.475-2.382 0-4.61.551-6.513 1.51-1.016-.707-2.356-1.31-3.367-1.545-1.959-.487-2.61.093-2.817 1.993zm7.376 8.377c-1.485-.655-4.023-.489-4.023-.489s.119 2.389 1.576 3.2c1.728.961 4.941.485 4.941.485s-.273-2.222-2.494-3.201v.005zm8.251 3.2s3.213.476 4.941-.485c1.457-.811 1.576-3.2 1.576-3.2s-2.538-.166-4.023.489c-2.221.97-2.494 3.187-2.494 3.187v.009zM41.494 26.7c0 .176.327.319.73.319.403 0 .73-.143.73-.319 0-.176-.327-.318-.73-.318-.403 0-.73.137-.73.318z" fill="#F2F4F8"></path><path fill-rule="evenodd" clip-rule="evenodd" d="M56.565 25.229a10.431 10.431 0 00-3.716-.7h.002c-.322 0-.322-.5 0-.5 1.316.004 2.62.249 3.849.721a.255.255 0 01.173.304.252.252 0 01-.308.175zm-28.926-.468a10.832 10.832 0 013.85-.721v.003c.322 0 .321.5 0 .5a10.413 10.413 0 00-3.717.7.252.252 0 01-.307-.175.256.256 0 01.174-.307zm2.549 1.433a6.811 6.811 0 011.9-.319c.32.002.32.5-.002.5a6.285 6.285 0 00-1.733.291c-.522.153-1.119.369-1.5.722-.236.219-.59-.134-.353-.353.463-.428 1.1-.664 1.688-.841zm1.9-.319h-.002.002zm.57 1.249a9.524 9.524 0 00-1.441.769 4.49 4.49 0 00-1.2 1.081.25.25 0 00.089.342.257.257 0 00.343-.089c.281-.388.684-.689 1.083-.946.438-.278.897-.52 1.374-.725a.252.252 0 00.09-.342.257.257 0 00-.342-.09h.004zm19.592-.759a6.251 6.251 0 011.733.29c.29.082.573.187.847.313.236.103.456.241.651.41.236.218.59-.134.354-.354-.46-.427-1.093-.664-1.685-.841a6.787 6.787 0 00-1.9-.318c-.322 0-.323.5 0 .5zm.552 1.901a9.971 9.971 0 00-1.353-.7v-.005a.253.253 0 01-.09-.342.26.26 0 01.343-.089c.974.425 1.999.971 2.636 1.85a.252.252 0 01-.089.342.256.256 0 01-.342-.09c-.288-.397-.695-.705-1.105-.966z" fill="#F2F4F8"></path><path d="M25.739 18.986c.231-.36 2.261-1.443 4.773-2.086a29.528 29.528 0 012-4.461c-.01 0 2.009-3.624 2-3.626a11.413 11.413 0 01-1.662-.931 1.443 1.443 0 01-.241-.235.553.553 0 01-.08-.293c0-.084.119-.234.172-.3a3.48 3.48 0 01.446-.438c.385-.315.79-.606 1.211-.87.2-.132.408-.261.613-.391 1.44-.917 2.229-1.607 3.548-2.365 1.26-.722 1.872-1.167 3.333-1.092 1.836 0 6.4 5.814 8.458 8.81 1.234 1.8 2.89 5.041 3.5 6.26.146.037.278.072.4.108 1.872.562 3.708 1.386 4.157 1.91.4.466-1.348.674-3.071.974-1.723.3-7.568.449-13.185.487-5.617.038-12.173-.15-13.6-.375-1.427-.225-3.059-.637-2.772-1.086z" fill="#6665DD"></path><path d="M52.244 13.964s-3.7-.927-10.219-.927c-7 0-10.371 1.08-10.371 1.08s-.4.76-.574 1.2c-.174.44-.568 1.583-.568 1.583s5.093-.912 11.611-.912c3.925.016 7.842.347 11.714.99 0 0-.591-1.383-.945-1.973a36.636 36.636 0 00-.648-1.041z" fill="#FF99A5"></path><path d="M30.223 6.143c.424-.062 1 1.236 1 1.236s1.334-.359 1.542 0c.208.359-.938 1.221-.938 1.221s.692 1.217.473 1.47c-.219.253-1.453-.515-1.453-.515s-.941 1.06-1.248.9c-.307-.16.041-1.541.041-1.541s-1.331-.566-1.24-.902c.091-.336 1.478-.438 1.478-.438s-.078-1.369.345-1.431z" fill="#FFE600"></path><path d="M72.536 21.002c.636 0 1.086-.108 1.35-.324.276-.228.414-.498.414-.81a.82.82 0 00-.324-.684c-.204-.18-.516-.336-.936-.468l-.918-.288c-.504-.156-.96-.324-1.368-.504a4.454 4.454 0 01-1.044-.666 3.011 3.011 0 01-.684-.918c-.156-.36-.234-.792-.234-1.296 0-1.008.378-1.806 1.134-2.394.768-.588 1.83-.882 3.186-.882.516 0 .99.036 1.422.108.444.072.822.186 1.134.342.312.144.558.324.738.54.18.216.27.468.27.756a1.3 1.3 0 01-.216.738 2.175 2.175 0 01-.468.522c-.276-.192-.642-.354-1.098-.486a5.357 5.357 0 00-1.494-.198c-.576 0-1.002.09-1.278.27-.276.18-.414.408-.414.684 0 .24.09.426.27.558.18.12.462.246.846.378l.972.324a9.565 9.565 0 011.476.63c.432.216.792.468 1.08.756.288.276.504.6.648.972.144.36.216.774.216 1.242 0 .504-.102.966-.306 1.386a2.852 2.852 0 01-.882 1.062c-.384.3-.864.534-1.44.702-.564.168-1.218.252-1.962.252a7.619 7.619 0 01-1.53-.144 4.738 4.738 0 01-1.224-.378 2.528 2.528 0 01-.81-.612 1.362 1.362 0 01-.288-.846c0-.324.09-.594.27-.81a2.56 2.56 0 01.63-.522c.324.264.726.498 1.206.702a4.287 4.287 0 001.656.306zm11.033 2.268c-.312 0-.6-.03-.864-.09a3.922 3.922 0 01-.72-.198v3.222c-.12.036-.288.072-.504.108a4.398 4.398 0 01-.72.054c-.54 0-.93-.09-1.17-.27-.24-.18-.36-.522-.36-1.026v-8.91c0-.312.066-.564.198-.756.132-.204.318-.384.558-.54.36-.228.822-.414 1.386-.558a7.013 7.013 0 011.872-.234c.696 0 1.332.09 1.908.27a3.831 3.831 0 011.512.81c.42.372.744.846.972 1.422.24.576.36 1.26.36 2.052 0 .756-.114 1.428-.342 2.016a4.03 4.03 0 01-.918 1.458 4.044 4.044 0 01-1.404.882 5.23 5.23 0 01-1.764.288zm-.414-2.178c.648 0 1.146-.204 1.494-.612.36-.408.54-1.026.54-1.854 0-.852-.174-1.464-.522-1.836-.336-.372-.81-.558-1.422-.558-.276 0-.516.036-.72.108-.204.06-.39.132-.558.216v4.23c.168.096.348.174.54.234.192.048.408.072.648.072zm15.735-2.43c0 .708-.108 1.35-.324 1.926a3.94 3.94 0 01-.936 1.44 4.06 4.06 0 01-1.44.918c-.564.216-1.194.324-1.89.324a5.682 5.682 0 01-1.908-.306 4.246 4.246 0 01-1.458-.918 4.06 4.06 0 01-.918-1.44c-.216-.576-.324-1.224-.324-1.944 0-.696.108-1.326.324-1.89.228-.576.54-1.062.936-1.458a4.246 4.246 0 011.458-.918 5.342 5.342 0 011.89-.324c.684 0 1.308.108 1.872.324a3.94 3.94 0 011.44.936c.408.396.72.876.936 1.44.228.564.342 1.194.342 1.89zm-4.59-2.43c-.564 0-1.002.21-1.314.63-.312.42-.468 1.02-.468 1.8 0 .804.15 1.416.45 1.836.312.408.756.612 1.332.612.576 0 1.014-.21 1.314-.63.312-.42.468-1.026.468-1.818 0-.768-.156-1.362-.468-1.782-.312-.432-.75-.648-1.314-.648zm15.481 2.43c0 .708-.108 1.35-.324 1.926a3.94 3.94 0 01-.936 1.44 4.06 4.06 0 01-1.44.918c-.564.216-1.194.324-1.89.324a5.682 5.682 0 01-1.908-.306 4.246 4.246 0 01-1.458-.918 4.06 4.06 0 01-.918-1.44c-.216-.576-.324-1.224-.324-1.944 0-.696.108-1.326.324-1.89.228-.576.54-1.062.936-1.458a4.246 4.246 0 011.458-.918 5.342 5.342 0 011.89-.324c.684 0 1.308.108 1.872.324a3.94 3.94 0 011.44.936c.408.396.72.876.936 1.44.228.564.342 1.194.342 1.89zm-4.59-2.43c-.564 0-1.002.21-1.314.63-.312.42-.468 1.02-.468 1.8 0 .804.15 1.416.45 1.836.312.408.756.612 1.332.612.576 0 1.014-.21 1.314-.63.312-.42.468-1.026.468-1.818 0-.768-.156-1.362-.468-1.782-.312-.432-.75-.648-1.314-.648zM117 18.554l3.114 3.024c-.06.504-.216.894-.468 1.17-.24.264-.588.396-1.044.396-.348 0-.654-.084-.918-.252-.264-.168-.558-.444-.882-.828l-2.142-2.538v3.456c-.12.036-.288.066-.504.09a4.398 4.398 0 01-.72.054c-.54 0-.93-.084-1.17-.252-.24-.18-.36-.522-.36-1.026V11.282c.132-.036.306-.072.522-.108.216-.036.456-.054.72-.054.54 0 .924.09 1.152.27.24.18.36.522.36 1.026v5.094l3.258-3.312c.564 0 1.014.126 1.35.378.336.252.504.564.504.936 0 .324-.114.612-.342.864-.216.24-.558.564-1.026.972L117 18.554zm6.218 2.286c-.276-.6-.594-1.38-.954-2.34-.348-.972-.714-2.226-1.098-3.762.144-.156.342-.288.594-.396.264-.12.546-.18.846-.18.384 0 .696.084.936.252.24.156.426.45.558.882.264.876.528 1.74.792 2.592.276.852.552 1.71.828 2.574h.072c.144-.408.294-.852.45-1.332.156-.492.306-.996.45-1.512a38.17 38.17 0 00.396-1.584c.132-.54.246-1.062.342-1.566a2.4 2.4 0 011.17-.306c.384 0 .714.084.99.252.276.168.414.444.414.828 0 .432-.078.984-.234 1.656-.144.66-.342 1.356-.594 2.088-.24.72-.516 1.44-.828 2.16-.3.708-.612 1.332-.936 1.872-.672 1.14-1.278 1.986-1.818 2.538-.54.564-1.086.846-1.638.846-.444 0-.81-.138-1.098-.414a1.663 1.663 0 01-.522-1.026c.384-.336.78-.732 1.188-1.188.42-.444.774-.894 1.062-1.35-.204-.06-.42-.192-.648-.396-.216-.216-.456-.612-.72-1.188zm12.241.162c.636 0 1.086-.108 1.35-.324.276-.228.414-.498.414-.81a.82.82 0 00-.324-.684c-.204-.18-.516-.336-.936-.468l-.918-.288c-.504-.156-.96-.324-1.368-.504a4.454 4.454 0 01-1.044-.666 3.011 3.011 0 01-.684-.918c-.156-.36-.234-.792-.234-1.296 0-1.008.378-1.806 1.134-2.394.768-.588 1.83-.882 3.186-.882.516 0 .99.036 1.422.108.444.072.822.186 1.134.342.312.144.558.324.738.54.18.216.27.468.27.756a1.3 1.3 0 01-.216.738 2.175 2.175 0 01-.468.522c-.276-.192-.642-.354-1.098-.486a5.357 5.357 0 00-1.494-.198c-.576 0-1.002.09-1.278.27-.276.18-.414.408-.414.684 0 .24.09.426.27.558.18.12.462.246.846.378l.972.324a9.565 9.565 0 011.476.63c.432.216.792.468 1.08.756.288.276.504.6.648.972.144.36.216.774.216 1.242 0 .504-.102.966-.306 1.386a2.852 2.852 0 01-.882 1.062c-.384.3-.864.534-1.44.702-.564.168-1.218.252-1.962.252a7.619 7.619 0 01-1.53-.144 4.738 4.738 0 01-1.224-.378 2.528 2.528 0 01-.81-.612 1.362 1.362 0 01-.288-.846c0-.324.09-.594.27-.81a2.56 2.56 0 01.63-.522c.324.264.726.498 1.206.702a4.287 4.287 0 001.656.306zm12.656-3.15c-.108.444-.228.9-.36 1.368-.132.468-.264.924-.396 1.368-.132.444-.258.852-.378 1.224a48.5 48.5 0 00-.288.918c-.324.288-.84.432-1.548.432-.432 0-.81-.06-1.134-.18-.324-.12-.54-.3-.648-.54-.132-.288-.288-.744-.468-1.368-.18-.624-.36-1.308-.54-2.052-.168-.744-.33-1.5-.486-2.268a59.138 59.138 0 01-.378-2.016c.144-.156.342-.288.594-.396.264-.12.546-.18.846-.18.384 0 .696.09.936.27.24.168.39.462.45.882l.306 2.16a142.731 142.731 0 00.432 2.556c.06.252.102.45.126.594h.072l.216-.864c.096-.384.21-.816.342-1.296.132-.492.27-1.014.414-1.566.156-.564.306-1.128.45-1.692.204-.12.414-.21.63-.27.228-.072.498-.108.81-.108.384 0 .708.066.972.198.276.12.45.306.522.558.156.54.306 1.074.45 1.602.144.516.276.996.396 1.44.12.444.222.84.306 1.188.096.348.168.618.216.81h.09a118.78 118.78 0 00.918-6.138c.192-.108.396-.186.612-.234.216-.06.432-.09.648-.09.372 0 .678.084.918.252.252.156.378.432.378.828 0 .18-.036.462-.108.846-.06.384-.144.816-.252 1.296-.096.48-.21.99-.342 1.53a92.275 92.275 0 01-.396 1.53c-.132.492-.264.942-.396 1.35-.12.408-.222.72-.306.936-.132.132-.354.234-.666.306a3.866 3.866 0 01-1.008.126c-.912 0-1.446-.222-1.602-.666l-.306-.882c-.12-.348-.246-.726-.378-1.134-.12-.42-.24-.852-.36-1.296-.12-.456-.222-.9-.306-1.332zm11.958 3.402c.264 0 .522-.024.774-.072.264-.06.462-.132.594-.216V19.31l-1.476.126c-.384.036-.696.126-.936.27-.228.132-.342.336-.342.612a.82.82 0 00.324.684c.216.168.57.252 1.062.252zm-.108-7.182c.624 0 1.188.066 1.692.198.516.12.954.312 1.314.576.36.264.636.6.828 1.008.204.408.306.888.306 1.44v4.068c0 .312-.084.564-.252.756-.156.18-.348.336-.576.468-.372.228-.828.402-1.368.522a8.5 8.5 0 01-1.836.18c-1.236 0-2.22-.234-2.952-.702-.732-.48-1.098-1.206-1.098-2.178 0-.828.246-1.458.738-1.89.492-.432 1.248-.702 2.268-.81l2.394-.252v-.198c0-.384-.156-.666-.468-.846-.312-.18-.762-.27-1.35-.27-.456 0-.906.054-1.35.162a8.384 8.384 0 00-1.17.378 1.228 1.228 0 01-.378-.432 1.503 1.503 0 01-.144-.648c0-.528.276-.906.828-1.134a5.39 5.39 0 011.206-.288 8.992 8.992 0 011.368-.108zm10.929 9.198c-.312 0-.6-.03-.864-.09a3.922 3.922 0 01-.72-.198v3.222c-.12.036-.288.072-.504.108a4.398 4.398 0 01-.72.054c-.54 0-.93-.09-1.17-.27-.24-.18-.36-.522-.36-1.026v-8.91c0-.312.066-.564.198-.756.132-.204.318-.384.558-.54.36-.228.822-.414 1.386-.558a7.013 7.013 0 011.872-.234c.696 0 1.332.09 1.908.27a3.831 3.831 0 011.512.81c.42.372.744.846.972 1.422.24.576.36 1.26.36 2.052 0 .756-.114 1.428-.342 2.016a4.03 4.03 0 01-.918 1.458 4.044 4.044 0 01-1.404.882 5.23 5.23 0 01-1.764.288zm-.414-2.178c.648 0 1.146-.204 1.494-.612.36-.408.54-1.026.54-1.854 0-.852-.174-1.464-.522-1.836-.336-.372-.81-.558-1.422-.558-.276 0-.516.036-.72.108-.204.06-.39.132-.558.216v4.23c.168.096.348.174.54.234.192.048.408.072.648.072z" fill="#F2F4F8"></path></svg>
