<svg class="sc-bdnxRM dpHAro desktop-icon" width="" xmlns="http://www.w3.org/2000/svg" viewBox="24 0 36 36"><path d="M24 18a18 18 0 1036.001 0A18 18 0 0024 18z" fill="#121122"/><path fill-rule="evenodd" clip-rule="evenodd" d="M29.431 13.439c-.22 1.416.039 2.873.308 4.273.104.224.33.374.61.47a9.107 9.107 0 00-.889 3.918c0 5.859 5.672 10.613 12.668 10.613 6.996 0 12.672-4.743 12.672-10.613a9.113 9.113 0 00-.907-3.955c.234-.096.42-.236.512-.433.27-1.4.527-2.857.307-4.273-.206-1.9-.858-2.48-2.816-1.993-.996.231-2.309.82-3.319 1.51-1.889-.937-4.094-1.475-6.449-1.475-2.382 0-4.61.551-6.513 1.51-1.016-.707-2.356-1.31-3.367-1.545-1.959-.487-2.61.093-2.817 1.993zm7.376 8.377c-1.485-.655-4.023-.489-4.023-.489s.119 2.389 1.576 3.2c1.728.961 4.941.485 4.941.485s-.273-2.222-2.494-3.201v.005zm8.251 3.2s3.213.476 4.941-.485c1.457-.811 1.576-3.2 1.576-3.2s-2.538-.166-4.023.489c-2.221.97-2.494 3.187-2.494 3.187v.009zM41.494 26.7c0 .176.327.319.73.319.403 0 .73-.143.73-.319 0-.176-.327-.318-.73-.318-.403 0-.73.137-.73.318z" fill="#F2F4F8"/><path fill-rule="evenodd" clip-rule="evenodd" d="M56.565 25.229a10.431 10.431 0 00-3.716-.7h.002c-.322 0-.322-.5 0-.5 1.316.004 2.62.249 3.849.721a.255.255 0 01.173.304.252.252 0 01-.308.175zm-28.926-.468a10.832 10.832 0 013.85-.721v.003c.322 0 .321.5 0 .5a10.413 10.413 0 00-3.717.7.252.252 0 01-.307-.175.256.256 0 01.174-.307zm2.549 1.433a6.811 6.811 0 011.9-.319c.32.002.32.5-.002.5a6.285 6.285 0 00-1.733.291c-.522.153-1.119.369-1.5.722-.236.219-.59-.134-.353-.353.463-.428 1.1-.664 1.688-.841zm1.9-.319h-.002.002zm.57 1.249a9.524 9.524 0 00-1.441.769 4.49 4.49 0 00-1.2 1.081.25.25 0 00.089.342.257.257 0 00.343-.089c.281-.388.684-.689 1.083-.946.438-.278.897-.52 1.374-.725a.252.252 0 00.09-.342.257.257 0 00-.342-.09h.004zm19.592-.759a6.251 6.251 0 011.733.29c.29.082.573.187.847.313.236.103.456.241.651.41.236.218.59-.134.354-.354-.46-.427-1.093-.664-1.685-.841a6.787 6.787 0 00-1.9-.318c-.322 0-.323.5 0 .5zm.552 1.901a9.971 9.971 0 00-1.353-.7v-.005a.253.253 0 01-.09-.342.26.26 0 01.343-.089c.974.425 1.999.971 2.636 1.85a.252.252 0 01-.089.342.256.256 0 01-.342-.09c-.288-.397-.695-.705-1.105-.966z" fill="#F2F4F8"/><path d="M25.739 18.986c.231-.36 2.261-1.443 4.773-2.086a29.528 29.528 0 012-4.461c-.01 0 2.009-3.624 2-3.626a11.413 11.413 0 01-1.662-.931 1.443 1.443 0 01-.241-.235.553.553 0 01-.08-.293c0-.084.119-.234.172-.3a3.48 3.48 0 01.446-.438c.385-.315.79-.606 1.211-.87.2-.132.408-.261.613-.391 1.44-.917 2.229-1.607 3.548-2.365 1.26-.722 1.872-1.167 3.333-1.092 1.836 0 6.4 5.814 8.458 8.81 1.234 1.8 2.89 5.041 3.5 6.26.146.037.278.072.4.108 1.872.562 3.708 1.386 4.157 1.91.4.466-1.348.674-3.071.974-1.723.3-7.568.449-13.185.487-5.617.038-12.173-.15-13.6-.375-1.427-.225-3.059-.637-2.772-1.086z" fill="#6665DD"/><path d="M52.244 13.964s-3.7-.927-10.219-.927c-7 0-10.371 1.08-10.371 1.08s-.4.76-.574 1.2c-.174.44-.568 1.583-.568 1.583s5.093-.912 11.611-.912c3.925.016 7.842.347 11.714.99 0 0-.591-1.383-.945-1.973a36.636 36.636 0 00-.648-1.041z" fill="#FF99A5"/><path d="M30.223 6.143c.424-.062 1 1.236 1 1.236s1.334-.359 1.542 0c.208.359-.938 1.221-.938 1.221s.692 1.217.473 1.47c-.219.253-1.453-.515-1.453-.515s-.941 1.06-1.248.9c-.307-.16.041-1.541.041-1.541s-1.331-.566-1.24-.902c.091-.336 1.478-.438 1.478-.438s-.078-1.369.345-1.431z" fill="#FFE600"/></svg>