<svg viewBox="0 0 302 63" class="sc-bdfBwQ eRAmrR desktop-icon" color="text" width="20px" xmlns="http://www.w3.org/2000/svg"><path d="M98.8287 39.6891C98.8287 41.3948 98.4811 42.8242 97.7896 43.9775C97.0981 45.1307 96.1711 46.0563 95.0086 46.7505C93.8499 47.4485 92.5229 47.9523 91.0278 48.2658C89.5327 48.5793 88.0039 48.7361 86.4377 48.7361C83.7016 48.7361 81.3168 48.0941 79.2797 46.814C77.2426 45.5338 75.568 43.9103 74.2598 41.9471L79.9002 38.618C80.2142 39.1591 80.6066 39.6779 81.0739 40.1743C81.5448 40.6707 82.0644 41.1111 82.6326 41.4955C83.2007 41.8799 83.8212 42.1935 84.4903 42.4361C85.1594 42.6786 85.8359 42.7981 86.5199 42.7981C87.0881 42.7981 87.7161 42.7645 88.4001 42.6898C89.0841 42.6189 89.7233 42.4771 90.3251 42.2644C90.9231 42.0516 91.4203 41.7605 91.8202 41.391C92.2202 41.0215 92.4183 40.5251 92.4183 39.8981C92.4183 39.3569 92.2538 38.9016 91.9286 38.5321C91.5997 38.1626 91.1511 37.8342 90.583 37.5505C90.0111 37.2669 89.342 37.0243 88.5758 36.8265C87.8058 36.6287 86.9797 36.4271 86.0976 36.2293C84.9276 35.9718 83.7053 35.6546 82.4232 35.2701C81.1412 34.8857 79.9675 34.352 78.8984 33.669C77.8294 32.986 76.9473 32.0977 76.2483 31.0004C75.5493 29.9069 75.2017 28.5035 75.2017 26.7979C75.2017 25.2341 75.5157 23.8457 76.1436 22.6364C76.7716 21.4272 77.5977 20.4232 78.6218 19.6283C79.646 18.8333 80.816 18.2287 82.128 17.8144C83.4399 17.4038 84.7781 17.1948 86.1462 17.1948C88.6543 17.1948 90.897 17.7994 92.878 19.0087C94.8591 20.2179 96.5337 21.7743 97.9017 23.6815L92.5454 27.313C92.2875 26.8278 91.9436 26.3463 91.5175 25.8611C91.0876 25.3759 90.6017 24.9355 90.0597 24.5399C89.5177 24.1406 88.9234 23.8158 88.2805 23.5583C87.6376 23.3008 86.9573 23.1739 86.2433 23.1739C85.7014 23.1739 85.1556 23.2448 84.6136 23.3866C84.0716 23.5285 83.5782 23.7412 83.1334 24.0248C82.6886 24.3085 82.3261 24.6593 82.0382 25.0699C81.7542 25.4842 81.6084 25.9432 81.6084 26.4583C81.6084 26.9136 81.7654 27.3055 82.0794 27.6302C82.3933 27.9586 82.812 28.2423 83.339 28.4849C83.8661 28.7275 84.4791 28.9477 85.178 29.1455C85.877 29.3433 86.6246 29.5448 87.4208 29.7427C88.6729 30.0562 89.97 30.4182 91.3081 30.8325C92.6463 31.2468 93.8723 31.8141 94.9825 32.5381C96.0926 33.2622 97.0121 34.1952 97.7373 35.3336C98.4661 36.4719 98.8287 37.9238 98.8287 39.6891Z" fill="#FF9D3B"></path><path d="M114.684 25.3499C115.966 25.3499 117.163 25.5924 118.273 26.0739C119.383 26.5591 120.358 27.2197 121.199 28.0595C122.04 28.8992 122.702 29.8733 123.188 30.9818C123.67 32.0903 123.913 33.2846 123.913 34.5648V47.9225H117.503V35.8039C117.503 35.1769 117.376 34.5797 117.118 34.0124C116.86 33.4451 116.52 32.945 116.093 32.5195C115.667 32.094 115.166 31.7581 114.598 31.5155C114.026 31.2729 113.428 31.1535 112.804 31.1535C112.15 31.1535 111.537 31.2804 110.965 31.5379C110.393 31.7955 109.896 32.1351 109.47 32.5606C109.044 32.986 108.7 33.4862 108.446 34.0535C108.188 34.6245 108.061 35.2329 108.061 35.8897V47.9225H101.65V18.0496H108.061V28.6753C108.943 27.6788 109.933 26.8763 111.032 26.2643C112.128 25.6559 113.342 25.3499 114.684 25.3499Z" fill="#FF9D3B"></path><path d="M130.26 16.344C131.307 16.344 132.2 16.7135 132.937 17.4525C133.673 18.1915 134.043 19.0872 134.043 20.1397C134.043 21.1922 133.673 22.0879 132.937 22.8269C132.2 23.5659 131.307 23.9354 130.26 23.9354C129.214 23.9354 128.32 23.5659 127.584 22.8269C126.848 22.0879 126.481 21.1922 126.481 20.1397C126.481 19.0872 126.848 18.1915 127.584 17.4525C128.32 16.7135 129.214 16.344 130.26 16.344ZM127.08 26.2046H133.49V47.9263H127.08V26.2046Z" fill="#FF9D3B"></path><path d="M143.447 18.0533V27.8691C144.356 27.1301 145.357 26.5255 146.453 26.0552C147.548 25.585 148.692 25.3499 149.884 25.3499C151.476 25.3499 152.983 25.6559 154.403 26.268C155.823 26.8801 157.068 27.7124 158.133 28.7649C159.199 29.8174 160.036 31.0639 160.649 32.4971C161.258 33.934 161.565 35.4643 161.565 37.084C161.565 38.6777 161.258 40.1856 160.649 41.6075C160.036 43.0295 159.206 44.2761 158.156 45.3398C157.106 46.4072 155.868 47.247 154.448 47.8591C153.027 48.4712 151.506 48.7772 149.884 48.7772C148.692 48.7772 147.552 48.5421 146.471 48.0681C145.391 47.5941 144.382 46.9708 143.444 46.1982V47.9225H137.033V18.0496H143.447V18.0533ZM143.275 37.0617C143.275 37.8828 143.432 38.6553 143.746 39.3794C144.06 40.1034 144.479 40.7267 145.006 41.2492C145.533 41.7718 146.161 42.1898 146.886 42.5033C147.611 42.8168 148.389 42.9698 149.215 42.9698C150.041 42.9698 150.818 42.8131 151.544 42.5033C152.269 42.1898 152.897 41.7718 153.424 41.2492C153.951 40.7267 154.369 40.0997 154.683 39.3794C154.997 38.6553 155.154 37.8828 155.154 37.0617C155.154 36.2406 154.997 35.468 154.683 34.7439C154.369 34.0199 153.951 33.3966 153.424 32.8741C152.897 32.3516 152.269 31.9335 151.544 31.62C150.818 31.3065 150.041 31.1535 149.215 31.1535C148.389 31.1535 147.611 31.3103 146.886 31.62C146.161 31.9298 145.533 32.3516 145.006 32.8741C144.479 33.3966 144.057 34.0236 143.746 34.7439C143.432 35.468 143.275 36.2406 143.275 37.0617Z" fill="#FF9D3B"></path><path d="M187.763 26.2047V47.9264H181.353V46.2021C180.441 46.9747 179.443 47.6017 178.362 48.072C177.278 48.5422 176.138 48.7811 174.942 48.7811C173.32 48.7811 171.788 48.4751 170.348 47.863C168.909 47.2509 167.661 46.4111 166.611 45.3437C165.557 44.2763 164.723 43.0334 164.11 41.6115C163.497 40.1895 163.19 38.6816 163.19 37.088C163.19 35.4682 163.504 33.9379 164.132 32.501C164.76 31.0641 165.605 29.8213 166.674 28.7688C167.743 27.7163 168.988 26.884 170.412 26.2719C171.836 25.6598 173.346 25.3538 174.942 25.3538C176.138 25.3538 177.278 25.5889 178.362 26.0592C179.446 26.5294 180.441 27.134 181.353 27.873V26.2084H187.763V26.2047ZM175.626 42.9737C176.422 42.9737 177.185 42.817 177.914 42.5072C178.639 42.1937 179.274 41.7757 179.816 41.2532C180.358 40.7306 180.785 40.1036 181.099 39.3833C181.413 38.6592 181.569 37.8867 181.569 37.0656C181.569 36.2445 181.413 35.4719 181.099 34.7478C180.785 34.0238 180.358 33.4005 179.816 32.878C179.274 32.3555 178.643 31.9375 177.914 31.6239C177.189 31.3104 176.426 31.1574 175.626 31.1574C174.8 31.1574 174.023 31.3142 173.298 31.6239C172.572 31.9375 171.944 32.3555 171.417 32.878C170.89 33.4005 170.468 34.0275 170.158 34.7478C169.844 35.4719 169.687 36.2445 169.687 37.0656C169.687 37.8867 169.844 38.6592 170.158 39.3833C170.472 40.1074 170.89 40.7306 171.417 41.2532C171.944 41.7757 172.572 42.1937 173.298 42.5072C174.023 42.817 174.8 42.9737 175.626 42.9737Z" fill="#FF9D3B"></path><path d="M215.245 39.6891C215.245 41.3948 214.897 42.8242 214.205 43.9775C213.514 45.1307 212.587 46.0563 211.424 46.7505C210.262 47.4485 208.935 47.9523 207.444 48.2658C205.949 48.5793 204.42 48.7361 202.854 48.7361C200.117 48.7361 197.733 48.0941 195.696 46.814C193.658 45.5338 191.984 43.9103 190.672 41.9471L196.312 38.618C196.626 39.1591 197.019 39.6779 197.486 40.1743C197.957 40.6707 198.477 41.1111 199.045 41.4955C199.613 41.8799 200.233 42.1935 200.902 42.4361C201.571 42.6786 202.248 42.7981 202.932 42.7981C203.5 42.7981 204.128 42.7645 204.812 42.6898C205.496 42.6189 206.135 42.4771 206.733 42.2644C207.332 42.0516 207.829 41.7605 208.229 41.391C208.629 41.0215 208.827 40.5251 208.827 39.8981C208.827 39.3569 208.662 38.9016 208.337 38.5321C208.008 38.1626 207.56 37.8342 206.991 37.5505C206.419 37.2669 205.75 37.0243 204.984 36.8265C204.214 36.6287 203.388 36.4271 202.506 36.2293C201.336 35.9718 200.114 35.6546 198.832 35.2701C197.55 34.8857 196.376 34.352 195.307 33.669C194.238 32.986 193.356 32.0977 192.657 31.0004C191.958 29.9069 191.61 28.5035 191.61 26.7979C191.61 25.2341 191.924 23.8457 192.552 22.6364C193.18 21.4272 194.006 20.4232 195.03 19.6283C196.054 18.8333 197.224 18.2287 198.536 17.8144C199.845 17.4038 201.186 17.1948 202.555 17.1948C205.063 17.1948 207.305 17.7994 209.286 19.0087C211.267 20.2179 212.942 21.7743 214.306 23.6815L208.961 27.313C208.703 26.8278 208.359 26.3463 207.933 25.8611C207.503 25.3759 207.018 24.9355 206.476 24.5399C205.934 24.1406 205.339 23.8158 204.696 23.5583C204.053 23.3008 203.373 23.1739 202.659 23.1739C202.117 23.1739 201.571 23.2448 201.029 23.3866C200.488 23.5285 199.994 23.7412 199.549 24.0248C199.104 24.3085 198.742 24.6593 198.454 25.0699C198.17 25.4842 198.024 25.9432 198.024 26.4583C198.024 26.9136 198.181 27.3055 198.495 27.6302C198.809 27.9586 199.228 28.2423 199.755 28.4849C200.282 28.7275 200.895 28.9477 201.594 29.1455C202.293 29.3433 203.04 29.5448 203.837 29.7427C205.089 30.0562 206.386 30.4182 207.724 30.8325C209.062 31.2468 210.288 31.8141 211.398 32.5381C212.508 33.2622 213.428 34.1952 214.157 35.3336C214.882 36.4719 215.245 37.9238 215.245 39.6891Z" fill="white"></path><path d="M250.29 26.2046L243.536 47.9263H236.143L232.681 34.9119L229.22 47.9263H221.827L215.072 26.2046H221.397L225.415 40.7566L229.302 26.2046H236.057L239.944 40.7566L243.962 26.2046H250.29Z" fill="white"></path><path d="M274.052 26.2047V47.9264H267.642V46.2021C266.73 46.9747 265.732 47.6017 264.651 48.072C263.567 48.5422 262.427 48.7811 261.231 48.7811C259.609 48.7811 258.077 48.4751 256.637 47.863C255.198 47.2509 253.95 46.4111 252.9 45.3437C251.846 44.2763 251.012 43.0334 250.399 41.6115C249.786 40.1895 249.479 38.6816 249.479 37.088C249.479 35.4682 249.793 33.9379 250.421 32.501C251.049 31.0641 251.894 29.8213 252.963 28.7688C254.032 27.7163 255.277 26.884 256.701 26.2719C258.125 25.6598 259.635 25.3538 261.231 25.3538C262.427 25.3538 263.567 25.5889 264.651 26.0592C265.735 26.5294 266.73 27.134 267.642 27.873V26.2084H274.052V26.2047ZM261.915 42.9737C262.711 42.9737 263.474 42.817 264.203 42.5072C264.928 42.1937 265.563 41.7757 266.105 41.2532C266.647 40.7306 267.074 40.1036 267.388 39.3833C267.702 38.6592 267.859 37.8867 267.859 37.0656C267.859 36.2445 267.702 35.4719 267.388 34.7478C267.074 34.0238 266.647 33.4005 266.105 32.878C265.563 32.3555 264.932 31.9375 264.203 31.6239C263.478 31.3104 262.715 31.1574 261.915 31.1574C261.089 31.1574 260.312 31.3142 259.587 31.6239C258.862 31.9375 258.234 32.3555 257.707 32.878C257.179 33.4005 256.757 34.0275 256.447 34.7478C256.133 35.4719 255.976 36.2445 255.976 37.0656C255.976 37.8867 256.133 38.6592 256.447 39.3833C256.761 40.1074 257.179 40.7306 257.707 41.2532C258.234 41.7757 258.862 42.1937 259.587 42.5072C260.312 42.817 261.089 42.9737 261.915 42.9737Z" fill="white"></path><path d="M290.319 25.3499C291.912 25.3499 293.418 25.6559 294.839 26.268C296.259 26.8801 297.504 27.7124 298.569 28.7649C299.634 29.8174 300.472 31.0639 301.085 32.4971C301.694 33.934 302 35.4643 302 37.0841C302 38.6777 301.694 40.1856 301.085 41.6075C300.472 43.0295 299.642 44.2761 298.591 45.3398C297.541 46.4072 296.304 47.247 294.883 47.8591C293.463 48.4712 291.942 48.7772 290.319 48.7772C289.127 48.7772 287.987 48.5421 286.907 48.0681C285.827 47.5941 284.817 46.9708 283.879 46.1982V58.593H277.469V26.2045H283.879V27.8691C284.787 27.1301 285.789 26.5255 286.884 26.0552C287.98 25.585 289.123 25.3499 290.319 25.3499ZM289.65 42.9736C290.476 42.9736 291.254 42.8168 291.979 42.507C292.704 42.1935 293.332 41.7755 293.859 41.253C294.386 40.7305 294.805 40.1034 295.119 39.3831C295.433 38.6591 295.59 37.8865 295.59 37.0654C295.59 36.2443 295.433 35.4717 295.119 34.7477C294.805 34.0236 294.386 33.4003 293.859 32.8778C293.332 32.3553 292.704 31.9373 291.979 31.6238C291.254 31.3103 290.476 31.1572 289.65 31.1572C288.824 31.1572 288.047 31.314 287.322 31.6238C286.597 31.9373 285.969 32.3553 285.442 32.8778C284.915 33.4003 284.492 34.0273 284.182 34.7477C283.868 35.4717 283.711 36.2443 283.711 37.0654C283.711 37.8865 283.868 38.6591 284.182 39.3831C284.496 40.1072 284.915 40.7305 285.442 41.253C285.969 41.7755 286.597 42.1935 287.322 42.507C288.047 42.8168 288.824 42.9736 289.65 42.9736Z" fill="white"></path><path d="M56.9126 1.27325C55.6866 -0.130077 53.6009 -0.406266 52.0347 0.608907C49.9079 1.98238 46.9849 4.66587 44.5216 9.76039C44.4095 9.99552 44.5141 10.2754 44.7533 10.3837C46.2971 11.0741 47.7436 11.884 49.1005 12.7574C49.1752 12.8059 49.2575 12.7313 49.2238 12.6492C49.0631 12.2573 49.0631 11.8019 49.2724 11.4026C50.0536 9.89475 50.861 8.68923 51.6497 7.72631C52.6589 6.49094 54.5802 6.67382 55.3988 8.03982C57.2602 11.1525 58.0452 14.2466 58.2807 16.9711C58.3778 18.0908 57.3126 18.8036 56.3669 18.5498C56.2921 18.5312 56.2398 18.617 56.2921 18.673C59.3422 21.8006 61.3158 24.6857 62.0708 25.8688C62.2091 26.0853 62.5343 26.033 62.6016 25.7829C63.7566 21.4535 65.3228 10.9025 56.9126 1.27325Z" fill="white"></path><path d="M33.2255 17.5201C33.7787 14.7284 34.6197 12.0225 35.7074 9.50694C35.9691 8.90232 35.5579 8.21185 34.9001 8.17453C34.8963 8.17453 34.8926 8.17453 34.8851 8.17453C34.8739 8.17453 34.8627 8.1708 34.8477 8.1708C34.3469 8.14467 33.8422 8.12601 33.3339 8.12601C33.3115 8.12601 33.2928 8.12601 33.2704 8.12601C33.2479 8.12601 33.2292 8.12601 33.2068 8.12601C29.6185 8.14094 26.2282 8.79408 23.0735 9.95855C22.6175 10.1265 22.1054 9.92122 21.8923 9.48455C19.459 4.56917 16.5995 1.96033 14.5138 0.609252C12.9476 -0.402188 10.8619 -0.129731 9.63587 1.2736C1.00516 11.1529 2.88156 22.0137 4.0403 26.1192C4.11132 26.3693 4.07394 26.6343 3.93937 26.8582C2.97501 28.4966 2.10782 30.1911 1.35278 31.9154C-0.172271 35.3901 -0.415234 39.2978 0.661269 42.9367C0.986463 44.0303 1.38641 45.2358 1.88729 46.501C2.38816 47.7663 4.16364 47.8558 4.78039 46.6429C7.81927 40.6974 16.222 38.0064 21.2756 41.4102C21.9334 41.8544 22.8866 41.7387 23.4136 41.1452C24.8826 39.4844 28.0859 36.7636 33.2255 36.6516C34.2497 36.6292 34.6758 36.7412 34.687 36.7412C34.074 35.2968 33.5769 33.7405 33.2105 32.0796V32.1804C33.2105 32.1132 33.2031 32.0498 33.1881 31.9863C32.7246 29.8477 32.4705 27.5412 32.4705 25.0704C32.4705 22.54 32.7358 19.9983 33.2255 17.5201ZM8.60796 13.8401C8.94063 12.4218 9.4415 10.9476 10.1741 9.45843C11.2917 7.18175 14.4689 6.98767 15.8706 9.10013C16.1472 9.51814 16.4238 9.96601 16.6967 10.4512C17.3209 11.556 16.992 12.9555 15.9491 13.6759C14.7979 14.4671 13.6952 15.3293 12.6374 16.2511C10.8469 17.8112 8.06597 16.1504 8.60796 13.8401ZM19.3506 35.2707H17.5938H17.5751H15.8183C13.8036 35.2707 12.2038 33.4643 12.5701 31.4862C12.97 29.3327 15.0146 27.4591 17.5751 27.4516C17.5788 27.4516 17.5826 27.4516 17.5863 27.4516C17.59 27.4516 17.5938 27.4516 17.5975 27.4516C20.1579 27.4628 22.2025 29.3327 22.6025 31.4862C22.9651 33.4643 21.3653 35.2707 19.3506 35.2707Z" fill="white"></path><path d="M33.2702 8.00635C33.2589 8.00635 33.2477 8.00635 33.2402 8.00635C33.2402 8.20841 33.2178 8.02132 33.2178 8.02132C33.2178 8.02132 33.2402 8.22338 33.2402 8.02132C33.2552 8.02132 33.2664 8.02132 33.2814 8.02132C33.4984 8.02132 33.7155 8.03629 33.9287 8.04003C33.7042 8.03629 33.4909 8.01009 33.2702 8.00635Z" fill="white"></path><path d="M48.9696 27.4551C48.9659 27.4551 48.9622 27.4551 48.9584 27.4551C48.9547 27.4551 48.9509 27.4551 48.9472 27.4551C45.243 27.47 42.4957 30.9335 43.3853 34.0985C43.389 34.1059 43.389 34.1134 43.3927 34.1209C43.404 34.1619 43.4189 34.203 43.4301 34.244C43.4413 34.2814 43.4563 34.3224 43.4712 34.3597C43.6693 34.8076 44.1179 35.1249 44.6412 35.1249C44.9066 35.1249 45.1495 35.0465 45.3514 34.9084C45.3551 34.9047 45.3589 34.9047 45.3626 34.9009C46.3382 34.1358 47.5754 33.6506 48.9472 33.6469C48.9509 33.6469 48.9547 33.6469 48.9584 33.6469C48.9622 33.6469 48.9659 33.6469 48.9696 33.6469C50.3452 33.6506 51.5787 34.1358 52.5542 34.9009C52.5617 34.9084 52.5692 34.9121 52.5767 34.9196C52.7785 35.0539 53.0215 35.1323 53.2831 35.1323C53.784 35.1323 54.2101 34.8412 54.4232 34.4232C54.4269 34.412 54.4344 34.4045 54.4381 34.3933C54.4755 34.2851 54.5091 34.1806 54.539 34.0724C54.539 34.0612 54.539 34.05 54.5428 34.0388C55.3801 30.8925 52.6514 27.47 48.9696 27.4551Z" fill="white"></path><path d="M36.657 40.6375C35.7487 40.1896 34.5825 39.9097 33.3079 39.9097C31.9622 39.9097 30.7362 40.2232 29.8092 40.7158C28.7439 41.2831 28.0674 42.0893 28.0674 42.9477C28.0674 44.2652 29.1775 46.2694 31.581 46.9375C32.0968 47.0831 32.6724 47.1652 33.3079 47.1652C33.8611 47.1652 34.3619 47.1054 34.818 47.0047C37.513 46.4224 38.5483 44.3137 38.5483 42.944C38.5483 42.052 37.812 41.2085 36.657 40.6375Z" fill="white"></path><path d="M53.0477 54.4914C52.6589 54.2189 52.6589 53.6591 53.0477 53.3829C54.4083 52.4237 55.2343 50.7591 54.9876 48.9229C54.6998 46.7582 52.8795 45.0563 50.7003 44.892C48.5847 44.7316 46.727 45.9744 45.9831 47.7845C45.1159 49.5835 43.3891 50.886 41.3295 51.1585C41.1164 51.1883 40.8996 51.2033 40.6791 51.2107H40.3876H39.483C37.5879 51.1324 35.6255 49.9642 33.1286 49.9642L33.1249 49.9716V49.9642C30.628 49.9642 28.6694 51.1324 26.7705 51.2107H25.866H25.5744C25.4436 51.207 25.3128 51.1921 25.1819 51.1809C22.8981 50.9793 20.9694 49.5275 20.1246 47.5046C19.2986 45.8251 17.5006 44.7054 15.456 44.8995C13.3142 45.101 11.5462 46.7918 11.2622 48.9229C11.0155 50.7629 11.8415 52.4237 13.2021 53.3866C13.5908 53.6591 13.5908 54.2189 13.2021 54.4951C11.8415 55.4543 11.0155 57.1189 11.2622 58.9552C11.55 61.1161 13.3703 62.8218 15.5457 62.986C17.6576 63.1465 19.5041 61.9074 20.248 60.0972C20.9582 58.6641 22.4421 57.6787 24.1503 57.6787C24.2101 57.6787 24.2699 57.675 24.3297 57.6787C24.3297 57.675 24.3297 57.6825 24.3334 57.6787H42.3798C43.9908 57.787 45.3701 58.7835 46.028 60.1719C46.798 61.9447 48.6295 63.154 50.7265 62.9823C52.8944 62.8069 54.6998 61.1049 54.9876 58.9514C55.2343 57.1114 54.4083 55.4506 53.0477 54.4914Z" fill="#FF9D3B"></path></svg>
