<svg version="1.1" id="Layer_1" xmlns:serif="http://www.serif.com/" xmlns="http://www.w3.org/2000/svg" xmlns:xlink="http://www.w3.org/1999/xlink" x="0px" y="0px" style="enable-background:new 0 0 1246 455.9;" xml:space="preserve" viewBox="75 102 306 284">


<style type="text/css">
	.st0{fill:#e3e9f2;}
	.st1{fill-rule:evenodd;clip-rule:evenodd;fill:#FFFFFF;}
	.st2{fill-rule:evenodd;clip-rule:evenodd;fill:#0E0F23;}
	.st3{clip-path:url(#SVGID_2_);}
	.st4{fill:url(#Path_131_1_);}
</style><g>


	<path id="Path_129" class="st1" d="M145.6,123.1c19.6-27.3,85.5-13.3,147.7,31.2s96.5,102.6,77.1,129.9l-59.7,83.4   c-19.5,27.2-85.8,13.3-147.8-31.2s-96.7-102.7-77.1-130L145.6,123.1z"/><path id="Path_130" class="st2" d="M142.2,121.7c8.7-12,27.1-17.9,48.8-16.2c29.9,2.4,68.1,20.1,106.3,47.3   c38,27.4,64.8,54.9,76.6,82.6c8.7,19.8,9,37.5,0.3,49.7l-59.6,83.4c-8.7,12.1-25.6,17.5-47.2,15.8c-29.9-2.6-69.7-18.5-107.8-45.9   c-12.5-8.9-24.4-18.8-35.4-29.5c-18.8-17.9-29.1-43.4-37.3-62.2c-8.7-20-8.7-24.2,0-36.4L142.2,121.7z M366,279.1   c7-9.6,5.6-23.8-1.3-39.7c-11.4-26.1-37.6-60.6-74-86.6s-71.3-42.1-99.8-44.4c-17.4-1.4-34.3-0.1-41.2,9.6l-4.1,6   c-6.5,9.7-12.5,13.3-5.6,28.9c11.4,26.3,45.3,72.2,81.7,98.3c28.2,20.3,60.8,29.7,88.9,36.8c5.6,1.4,11.4,2.2,17.2,2.8   c17,1.3,30.5-1.8,37.5-10.9L366,279.1z M271.2,187.9c18.2,13,27.8,23.9,33.5,37.1c3.3,7.4,1.1,4.3-2.2,8.9   c-3.3,4.5-3.8,2.3-11.7,1.6c-14.4-1.2-26.7-7.7-44.9-20.7c-18.2-12.9-25.3-21.6-30.9-34.7c-3.3-7.4-8.3-10-5.2-14.5   c3.1-4.5,4.1-2.9,12.2-2.3C236.2,164.5,253.1,174.9,271.2,187.9z"/>

	<g>
		<g>
			<defs>
				<path id="SVGID_1_" d="M141.2,118c8.7-12.1,25.5-17.4,47.3-15.7c29.9,2.4,69.6,18.5,107.8,45.7c38,27.4,66,59.9,77.8,87.4      c8.7,19.8,9,37.5,0.3,49.7l-59.6,83.4c-8.7,12.1-25.6,17.5-47.2,15.8c-29.9-2.6-69.7-18.5-107.8-45.9      c-38.2-27.2-66-59.7-78-87.2c-8.7-19.9-9-37.7-0.3-49.7L141.2,118z M366,279.1c7-9.6,5.6-23.8-1.3-39.7      c-11.4-26.1-38.1-57-74.6-83s-74.2-41.5-102.6-43.8c-17.3-1.5-31.1,1.7-38,11.4l-0.3,0.5c-6.6,9.8-5.1,23.4,1.8,39.1      c11.4,26.3,38.1,57.2,74.4,83.2s74.1,41.5,102.6,43.9c17,1.3,30.5-1.8,37.5-10.9L366,279.1z M273.2,180      c18.2,13,31.6,28.4,37.3,41.7c3.3,7.4,4.3,13.9,0.9,18.4c-3.3,4.5-9.7,5.8-17.6,5.1c-14.4-1.2-33.1-9-51.3-22      s-31.8-28.4-37.3-41.5c-3.3-7.4-4.1-14-0.9-18.4c3.2-4.5,9.7-5.8,17.8-5.2C236.2,159.3,255.1,167,273.2,180z"/>
			</defs>
			<clipPath id="SVGID_2_">
				<use xlink:href="#SVGID_1_" style="overflow:visible;"/>
			</clipPath>
			<g class="st3">
				<g id="Group_588">
					<g id="Group_587">
						<linearGradient id="Path_131_1_" gradientUnits="userSpaceOnUse" x1="239.8145" y1="319.3052" x2="239.8145" y2="90.9951">
							<stop offset="0" style="stop-color:#FA52A0"/>
							<stop offset="0.5075" style="stop-color:#C26BB3"/>
							<stop offset="1" style="stop-color:#27B0E6"/>
						</linearGradient>
						<path id="Path_131" class="st4" d="M62.4,282.3c1.6,0,4.2,3.7,5.7,4.7c5,3.7,10.1,7.5,15.4,10.6c15.2,9.3,30.8,14.5,46.5,11        c24.6-5.5,46.9-48.4,71.7-42.5c13.9,3,23.7,22.7,35.9,36c11.5,13.4,24.3,19.2,37.2,16.6c38.3-7.7,52.8-83,91.7-79.1        c32.2,3.6,19.6,42.2,50.7,55.9c0.3,0.3-39.8-87.1-39.3-98.6C380.1,153.6,175,91,176.9,91l-98.9,26L62.4,282.3z"/>
					</g>
				</g>
			</g>
		</g>
	</g>
<path id="Path_133" class="st1" d="M313.6,302.1c11.2,1.9,21.7,2.3,30.3,0.8c1.2-0.1,2-1.2,1.9-2.4c-0.2-1.2-1.3-2-2.4-1.9   c-8.4,1.4-18.2,1-29.1-0.9c-1.2-0.1-2.3,0.7-2.5,2C311.7,300.8,312.5,301.9,313.6,302.1z M296.5,298.3c2.9,0.7,5.7,1.6,8.5,2.1   c1,0.3,2.2-0.3,2.4-1.4c0-0.1,0.1-0.2,0.1-0.3c0.2-1.2-0.5-2.3-1.6-2.6c-2.8-0.5-5.5-1.3-8.3-2c-1.1-0.4-2.3,0.1-2.7,1.2   c0,0.1-0.1,0.1-0.1,0.2C294.7,296.7,295.4,297.9,296.5,298.3L296.5,298.3z M135,161.3c8.1,33.2,39.9,64.1,65.5,86.1   c0.9,0.8,2.3,0.7,3.1-0.1c0.7-1.1,0.7-2.3-0.3-3c-24.9-21.5-56.1-51.6-63.9-83.9c-0.3-1.2-1.5-1.9-2.7-1.6l0,0h-0.1   c-1.1,0.2-1.8,1.2-1.6,2.4l0,0C134.9,161.1,134.9,161.2,135,161.3z M133.1,148c0,1.5,0.1,3,0.3,4.5c0.2,1.2,1.3,2,2.5,1.9   c1.2-0.1,2-1.1,1.9-2.2l0,0c0,0,0,0,0-0.1c-0.1-1.6-0.3-2.9-0.3-4.2c0-1.2-0.9-2.1-2-2.1l0,0c-0.1,0-0.2,0-0.3,0   C133.9,145.8,133,146.8,133.1,148z"/></g>
</svg>