<?xml version="1.0" encoding="utf-8"?>
<!-- Generator: Adobe Illustrator 25.2.3, SVG Export Plug-In . SVG Version: 6.00 Build 0)  -->
<svg version="1.1" id="Layer_1" xmlns="http://www.w3.org/2000/svg" xmlns:xlink="http://www.w3.org/1999/xlink" x="0px" y="0px"
	 viewBox="0 0 360 360" style="enable-background:new 0 0 360 360;" xml:space="preserve">
<style type="text/css">
	.st0{fill:#FFFFFF;}
</style>
<g>
	<path class="st0" d="M180,3.51C82.68,3.51,3.51,82.68,3.51,180S82.68,356.49,180,356.49c97.32,0,176.49-79.17,176.49-176.49
		S277.32,3.51,180,3.51z M180,347.99c-92.63,0-167.99-75.36-167.99-167.99C12.01,87.37,87.37,12.01,180,12.01
		S347.99,87.37,347.99,180C347.99,272.63,272.63,347.99,180,347.99z"/>
	<path class="st0" d="M180,39.01c-77.74,0-140.99,63.25-140.99,140.99c0,77.74,63.25,140.99,140.99,140.99S320.99,257.74,320.99,180
		C320.99,102.26,257.74,39.01,180,39.01z M216.79,266.09c-17.68,17.68-44.9,19.97-65.06,6.89c-3.01-1.95-5.87-4.25-8.52-6.89
		l-2.93-2.93l-11.28-11.3c-0.77-0.77-0.09-2.08,0.98-1.89l0.77,0.13c7.83,0.98,15.85,0.17,23.38-2.46c4.59-1.6,8.99-3.89,13.06-6.84
		c0.8-0.58,1.9-0.5,2.62,0.19c0.38,0.34,0.78,0.65,1.19,0.94c0.28,0.2,0.57,0.39,0.86,0.57c0.38,0.23,0.76,0.45,1.16,0.65
		c0.42,0.21,0.84,0.4,1.27,0.57c5.57,2.21,12.17,1.06,16.68-3.45L237,194.22c1.63-1.63,2.77-3.54,3.47-5.59
		c0.14-0.41,0.27-0.83,0.37-1.25c1.11-4.48,0.1-9.38-3.05-13.08c-0.25-0.3-0.51-0.59-0.79-0.87c-2.77-2.78-6.47-4.3-10.39-4.3
		c-3.93,0-7.62,1.53-10.39,4.3l-46.61,46.61c-1.36,1.36-2.77,2.61-4.23,3.79c-4.6,3.68-9.68,6.46-15.02,8.32
		c-7.52,2.63-15.54,3.44-23.38,2.46c-0.97-0.12-1.94-0.28-2.9-0.46c-9.86-1.81-19.29-6.5-26.9-14.11c-4.84-4.84-8.5-10.42-11-16.38
		c-0.38-0.91-0.73-1.82-1.06-2.74c-1.91-5.41-2.87-11.07-2.91-16.74c-0.09-13.24,4.89-26.5,14.97-36.58l82.06-82.06
		c0.43-0.43,1.12-0.43,1.55,0l27.51,27.51l20.47,20.47c1.52,1.52,0.37,4.12-1.77,4c-0.91-0.05-1.83-0.08-2.76-0.08
		c-1.05,0-2.1,0.04-3.14,0.11c-9.95,0.6-19.35,4.03-27.28,9.9c-0.92,0.68-2.2,0.58-3.01-0.23l-10.04-10.04
		c-0.43-0.43-1.12-0.43-1.55,0L123,173.44c-1.41,1.41-2.46,3.03-3.17,4.77c-1.99,4.83-1.31,10.5,2.05,14.75
		c0.35,0.44,0.72,0.87,1.12,1.27c0.1,0.1,0.21,0.18,0.31,0.28c5.75,5.44,14.84,5.35,20.47-0.28l46.61-46.61
		c1.53-1.53,3.15-2.95,4.83-4.25c2.24-1.74,4.6-3.29,7.07-4.63c7.38-4,15.69-6.12,24.32-6.12c3.62,0,7.17,0.39,10.63,1.11
		c9.31,1.96,17.89,6.48,24.89,13.22c0.23,0.22,0.47,0.44,0.7,0.67c6,6,10.18,13.12,12.57,20.7c1.14,3.62,1.88,7.34,2.21,11.1
		c0,0.03,0,0.06,0.01,0.08c1.22,14.52-3.7,29.47-14.78,40.56L216.79,266.09z"/>
	<path d="M180,12.01C87.37,12.01,12.01,87.37,12.01,180c0,92.63,75.36,167.99,167.99,167.99S347.99,272.63,347.99,180
		C347.99,87.37,272.63,12.01,180,12.01z M180,320.99c-77.74,0-140.99-63.25-140.99-140.99c0-77.74,63.25-140.99,140.99-140.99
		S320.99,102.26,320.99,180C320.99,257.74,257.74,320.99,180,320.99z"/>
	<path d="M277.62,179.49c0-0.03,0-0.06-0.01-0.08c-0.32-3.75-1.06-7.48-2.21-11.1c-2.39-7.58-6.58-14.7-12.57-20.7
		c-0.23-0.23-0.47-0.44-0.7-0.67c-6.99-6.74-15.57-11.26-24.89-13.22c-3.46-0.73-7.01-1.11-10.63-1.11
		c-8.63,0-16.94,2.13-24.32,6.12c-2.47,1.34-4.83,2.88-7.07,4.63c-1.68,1.31-3.3,2.72-4.83,4.25l-46.61,46.61
		c-5.63,5.63-14.72,5.71-20.47,0.28c-0.1-0.1-0.21-0.18-0.31-0.28c-0.41-0.41-0.77-0.83-1.12-1.27c-3.36-4.24-4.04-9.92-2.05-14.75
		c0.72-1.73,1.77-3.36,3.17-4.77l56.23-56.23c0.43-0.43,1.12-0.43,1.55,0l10.04,10.04c0.81,0.81,2.09,0.91,3.01,0.23
		c7.93-5.88,17.33-9.3,27.28-9.9c1.04-0.06,2.09-0.11,3.14-0.11c0.92,0,1.84,0.03,2.76,0.08c2.14,0.12,3.29-2.49,1.77-4
		l-20.47-20.47l-27.51-27.51c-0.43-0.43-1.12-0.43-1.55,0l-82.06,82.06c-10.08,10.08-15.06,23.34-14.97,36.58
		c0.04,5.67,1.01,11.34,2.91,16.74c0.32,0.92,0.68,1.84,1.06,2.74c2.49,5.96,6.15,11.54,11,16.38c7.61,7.61,17.04,12.3,26.9,14.11
		c0.96,0.18,1.93,0.34,2.9,0.46c7.83,0.98,15.85,0.17,23.38-2.46c5.34-1.86,10.43-4.64,15.02-8.32c1.46-1.17,2.88-2.43,4.23-3.79
		l46.61-46.61c2.77-2.78,6.46-4.3,10.39-4.3c3.92,0,7.62,1.53,10.39,4.3c0.28,0.28,0.54,0.57,0.79,0.87
		c3.15,3.7,4.16,8.6,3.05,13.08c-0.1,0.42-0.23,0.84-0.37,1.25c-0.7,2.04-1.84,3.96-3.47,5.59l-46.04,46.04
		c-4.51,4.51-11.11,5.66-16.68,3.45c-0.43-0.17-0.85-0.36-1.27-0.57c-0.39-0.2-0.78-0.41-1.16-0.65c-0.29-0.18-0.58-0.37-0.86-0.57
		c-0.41-0.29-0.8-0.6-1.19-0.94c-0.71-0.69-1.82-0.77-2.62-0.19c-4.07,2.95-8.47,5.24-13.06,6.84c-7.52,2.63-15.54,3.44-23.38,2.46
		l-0.77-0.13c-1.08-0.18-1.75,1.12-0.98,1.89l11.28,11.3l2.93,2.93c2.64,2.64,5.5,4.93,8.52,6.89
		c20.16,13.08,47.39,10.79,65.06-6.89l46.04-46.04C273.92,208.96,278.84,194.01,277.62,179.49z"/>
</g>
</svg>
