<svg fill="none" xmlns="http://www.w3.org/2000/svg" width="" height="" viewBox="0 0 32 32"><path d="M0 2.96296C0 1.32656 1.32656 0 2.96296 0H29.037C30.6734 0 32 1.32656 32 2.96296V29.037C32 30.6734 30.6734 32 29.037 32H2.96296C1.32656 32 0 30.6734 0 29.037V2.96296Z" fill="#1A5AFF"/><path d="M1.18518 20.7408H30.8148V28.7408C30.8148 29.8862 29.8862 30.8148 28.7407 30.8148H3.25925C2.11378 30.8148 1.18518 29.8862 1.18518 28.7408V20.7408Z" fill="white"/><path d="M13.9005 4.14816C13.9005 6.46698 12.0208 8.34674 9.70197 8.34674V4.14816H13.9005Z" fill="white"/><path d="M13.9005 8.34676C13.9005 6.02795 15.7803 4.14818 18.0991 4.14818H22.2977V8.34676H18.0991V16.8889H13.9005V8.34676Z" fill="white"/><path d="M7.21441 24.0771V29.0371H5.80997V24.0771H3.87219V22.7348H9.16108V24.0771H7.21441Z" fill="#1A5AFF"/><path d="M12.7673 29.1793C12.4176 29.1793 12.0917 29.1289 11.7895 29.0282C11.4873 28.9215 11.2236 28.7674 10.9984 28.5659C10.7732 28.3585 10.5954 28.1067 10.465 27.8104C10.3347 27.5082 10.2695 27.1585 10.2695 26.7615V22.7348H11.6739V26.6459C11.6739 27.0311 11.7717 27.3185 11.9673 27.5082C12.1628 27.6978 12.4295 27.7926 12.7673 27.7926C13.105 27.7926 13.3717 27.6978 13.5673 27.5082C13.7628 27.3185 13.8606 27.0311 13.8606 26.6459V22.7348H15.265V26.7615C15.265 27.1585 15.1999 27.5082 15.0695 27.8104C14.9391 28.1067 14.7613 28.3585 14.5362 28.5659C14.311 28.7674 14.0443 28.9215 13.7362 29.0282C13.4339 29.1289 13.111 29.1793 12.7673 29.1793Z" fill="#1A5AFF"/><path d="M19.9237 24.6371C19.9119 24.5659 19.8852 24.4859 19.8437 24.3971C19.8082 24.3022 19.7489 24.2163 19.6659 24.1393C19.5889 24.0563 19.4852 23.9882 19.3548 23.9348C19.2245 23.8756 19.0645 23.8459 18.8748 23.8459C18.6141 23.8459 18.4037 23.9171 18.2437 24.0593C18.0896 24.1956 18.0126 24.3496 18.0126 24.5215C18.0126 24.6756 18.06 24.8059 18.1548 24.9126C18.2556 25.0134 18.4156 25.0845 18.6348 25.1259L19.4793 25.2859C19.7815 25.3393 20.0452 25.4282 20.2704 25.5526C20.4956 25.6711 20.6852 25.8134 20.8393 25.9793C20.9934 26.1452 21.1089 26.3319 21.1859 26.5393C21.263 26.7408 21.3015 26.9541 21.3015 27.1793C21.3015 27.4282 21.2511 27.6711 21.1504 27.9082C21.0496 28.1452 20.8985 28.3585 20.6971 28.5482C20.5015 28.7319 20.2585 28.883 19.9682 29.0015C19.6778 29.1141 19.3459 29.1704 18.9726 29.1704C18.5341 29.1704 18.1578 29.1082 17.8437 28.9837C17.5296 28.8534 17.2689 28.6904 17.0615 28.4948C16.8541 28.2993 16.6971 28.083 16.5904 27.8459C16.4837 27.6089 16.4185 27.3778 16.3948 27.1526L17.6837 26.8415C17.6956 26.9837 17.7282 27.123 17.7815 27.2593C17.8408 27.3897 17.9237 27.5052 18.0304 27.6059C18.1371 27.7008 18.2704 27.7778 18.4304 27.8371C18.5904 27.8963 18.7771 27.9259 18.9904 27.9259C19.2689 27.9259 19.4852 27.8667 19.6393 27.7482C19.7993 27.6237 19.8793 27.4637 19.8793 27.2682C19.8793 27.1082 19.8171 26.9748 19.6926 26.8682C19.5741 26.7556 19.4111 26.6785 19.2037 26.6371L18.3415 26.4771C17.8022 26.3763 17.3815 26.16 17.0793 25.8282C16.7771 25.4963 16.6259 25.0963 16.6259 24.6282C16.6259 24.3319 16.6852 24.0593 16.8037 23.8104C16.9282 23.5615 17.0941 23.3482 17.3015 23.1704C17.5089 22.9926 17.7489 22.8534 18.0215 22.7526C18.2941 22.6519 18.5815 22.6015 18.8837 22.6015C19.2748 22.6015 19.6096 22.6548 19.8882 22.7615C20.1667 22.8682 20.3948 23.0045 20.5726 23.1704C20.7563 23.3304 20.8956 23.5111 20.9904 23.7126C21.0852 23.9082 21.1504 24.0978 21.1859 24.2815L19.9237 24.6371Z" fill="#1A5AFF"/><path d="M24.7537 27.7126C24.9967 27.7126 25.2248 27.6771 25.4382 27.6059C25.6515 27.5348 25.8382 27.4252 25.9982 27.2771C26.1582 27.1289 26.2826 26.9393 26.3715 26.7082C26.4663 26.4771 26.5137 26.2045 26.5137 25.8904C26.5137 25.5763 26.4663 25.3037 26.3715 25.0726C26.2826 24.8415 26.1582 24.6519 25.9982 24.5037C25.8382 24.3496 25.6515 24.2371 25.4382 24.1659C25.2248 24.0948 24.9967 24.0593 24.7537 24.0593H23.9359V27.7126H24.7537ZM22.5315 29.0371V22.7348H24.8159C25.29 22.7348 25.7196 22.8089 26.1048 22.9571C26.4959 23.0993 26.8308 23.3067 27.1093 23.5793C27.3878 23.8519 27.6011 24.1837 27.7493 24.5748C27.9034 24.9659 27.9804 25.4045 27.9804 25.8904C27.9804 26.3763 27.9034 26.8148 27.7493 27.2059C27.6011 27.5911 27.3878 27.92 27.1093 28.1926C26.8308 28.4652 26.4959 28.6756 26.1048 28.8237C25.7137 28.9659 25.2811 29.0371 24.8071 29.0371H22.5315Z" fill="#1A5AFF"/></svg>